<svg width="123" height="100" viewBox="0 0 123 100" fill="none" xmlns="http://www.w3.org/2000/svg">
<path d="M2.51904 83.3C2.0992 83.3 1.79307 83.2125 1.60064 83.0376C1.42571 82.8452 1.33824 82.5565 1.33824 82.1717V66.6114C1.33824 66.2265 1.42571 65.9379 1.60064 65.7454C1.79307 65.553 2.0992 65.4568 2.51904 65.4568H10.2074C12.1316 65.4568 13.5748 65.9029 14.537 66.795C15.4991 67.6697 15.9802 68.8855 15.9802 70.4424C15.9802 71.2646 15.779 71.9993 15.3766 72.6466C14.9918 73.2938 14.4582 73.7574 13.776 74.0373C15.5778 74.6321 16.4787 75.9528 16.4787 77.9995C16.4787 78.9966 16.2426 79.8975 15.7702 80.7022C15.3154 81.5069 14.6157 82.1454 13.671 82.6178C12.7439 83.0726 11.5893 83.3 10.2074 83.3H2.51904ZM9.47264 72.6728C10.1724 72.6728 10.7147 72.4979 11.0995 72.148C11.4844 71.7981 11.6768 71.2908 11.6768 70.6261C11.6768 69.9089 11.4931 69.4015 11.1258 69.1042C10.7759 68.7893 10.2249 68.6318 9.47264 68.6318H5.66784V72.6728H9.47264ZM9.89248 80.125C10.6622 80.125 11.2307 79.9238 11.5981 79.5214C11.9829 79.1016 12.1754 78.5593 12.1754 77.8946C12.1754 77.1423 11.9567 76.5826 11.5194 76.2152C11.082 75.8303 10.4698 75.6379 9.68256 75.6379H5.66784V80.125H9.89248ZM25.4575 83.6936C23.1309 83.6936 21.3203 83.0988 20.0258 81.9093C18.7488 80.7022 18.1103 79.0666 18.1103 77.0024C18.1103 74.9382 18.7488 73.3113 20.0258 72.1218C21.3203 70.9147 23.1309 70.3112 25.4575 70.3112C27.8016 70.3112 29.6122 70.9147 30.8892 72.1218C32.1837 73.3113 32.831 74.9382 32.831 77.0024C32.831 79.0666 32.1837 80.7022 30.8892 81.9093C29.6122 83.0988 27.8016 83.6936 25.4575 83.6936ZM25.4575 80.571C26.4546 80.571 27.2156 80.2737 27.7404 79.6789C28.2652 79.0841 28.5276 78.1919 28.5276 77.0024C28.5276 75.8303 28.2652 74.9469 27.7404 74.3522C27.2156 73.7574 26.4546 73.46 25.4575 73.46C24.4779 73.46 23.7257 73.7574 23.2009 74.3522C22.6761 74.9469 22.4137 75.8303 22.4137 77.0024C22.4137 78.1745 22.6761 79.0666 23.2009 79.6789C23.7257 80.2737 24.4779 80.571 25.4575 80.571ZM41.14 83.6936C38.8134 83.6936 37.0028 83.0988 35.7083 81.9093C34.4313 80.7022 33.7928 79.0666 33.7928 77.0024C33.7928 74.9382 34.4313 73.3113 35.7083 72.1218C37.0028 70.9147 38.8134 70.3112 41.14 70.3112C43.4841 70.3112 45.2947 70.9147 46.5717 72.1218C47.8662 73.3113 48.5135 74.9382 48.5135 77.0024C48.5135 79.0666 47.8662 80.7022 46.5717 81.9093C45.2947 83.0988 43.4841 83.6936 41.14 83.6936ZM41.14 80.571C42.1371 80.571 42.8981 80.2737 43.4229 79.6789C43.9477 79.0841 44.2101 78.1919 44.2101 77.0024C44.2101 75.8303 43.9477 74.9469 43.4229 74.3522C42.8981 73.7574 42.1371 73.46 41.14 73.46C40.1604 73.46 39.4082 73.7574 38.8834 74.3522C38.3586 74.9469 38.0962 75.8303 38.0962 77.0024C38.0962 78.1745 38.3586 79.0666 38.8834 79.6789C39.4082 80.2737 40.1604 80.571 41.14 80.571ZM63.7601 82.4341C63.8651 82.5565 63.9176 82.6965 63.9176 82.8539C63.9176 82.9764 63.8738 83.0813 63.7864 83.1688C63.7164 83.2563 63.6027 83.3 63.4452 83.3H60.1652C59.9553 83.3 59.7891 83.2825 59.6667 83.2475C59.5617 83.195 59.4568 83.1076 59.3518 82.9851L55.1796 77.8421C55.1272 77.7896 55.0659 77.7109 54.996 77.6059V82.1717C54.996 82.5565 54.9085 82.8452 54.7336 83.0376C54.5586 83.2125 54.2525 83.3 53.8152 83.3H51.8472C51.4273 83.3 51.1212 83.2125 50.9288 83.0376C50.7538 82.8452 50.6664 82.5565 50.6664 82.1717V66.6114C50.6664 66.2265 50.7538 65.9379 50.9288 65.7454C51.1212 65.553 51.4273 65.4568 51.8472 65.4568H53.8152C54.2525 65.4568 54.5586 65.553 54.7336 65.7454C54.9085 65.9204 54.996 66.209 54.996 66.6114V75.9528L55.1796 75.7429L59.2206 71.0459C59.3256 70.906 59.4305 70.8185 59.5355 70.7835C59.6579 70.731 59.8329 70.7048 60.0603 70.7048H63.314C63.454 70.7048 63.5677 70.7485 63.6552 70.836C63.7426 70.9235 63.7864 71.0284 63.7864 71.1509C63.7864 71.3083 63.7251 71.4483 63.6027 71.5707L58.7483 76.7925L63.7601 82.4341Z" fill="#50B2C0"/>
<path d="M78.5298 92.9694C76.8679 92.9694 75.5034 92.5496 74.4363 91.7099C73.3867 90.8877 72.757 89.8031 72.547 88.4562C70.1854 88.1063 68.4011 87.1442 67.1941 85.5698C65.987 83.9954 65.3835 81.9049 65.3835 79.2984C65.3835 76.3245 66.1707 74.0329 67.7451 72.4235C69.337 70.7966 71.6549 69.9832 74.6987 69.9832C77.7426 69.9832 80.0517 70.7966 81.6261 72.4235C83.218 74.0329 84.0139 76.3245 84.0139 79.2984C84.0139 81.9574 83.3667 84.0653 82.0722 85.6222C80.7777 87.1617 78.8621 88.0888 76.3256 88.4037C76.4306 88.841 76.693 89.1646 77.1128 89.3746C77.5326 89.5845 78.0225 89.6894 78.5822 89.6894C79.4394 89.6894 80.1741 89.4883 80.7864 89.0859C80.9263 88.9985 81.0401 88.9547 81.1275 88.9547C81.2325 88.9547 81.3287 89.0247 81.4162 89.1646L82.6232 91.0539C82.6932 91.1764 82.7282 91.2813 82.7282 91.3688C82.7282 91.4913 82.6319 91.6225 82.4395 91.7624C81.9147 92.1647 81.3374 92.4621 80.7077 92.6546C80.0954 92.8645 79.3694 92.9694 78.5298 92.9694ZM74.6987 84.8613C76.0807 84.8613 77.0953 84.3977 77.7426 83.4706C78.4073 82.5434 78.7397 81.1527 78.7397 79.2984C78.7397 77.4616 78.4073 76.0796 77.7426 75.1525C77.0953 74.2253 76.0807 73.7618 74.6987 73.7618C73.3167 73.7618 72.2934 74.2253 71.6286 75.1525C70.9814 76.0796 70.6578 77.4616 70.6578 79.2984C70.6578 81.1527 70.9814 82.5434 71.6286 83.4706C72.2934 84.3977 73.3167 84.8613 74.6987 84.8613ZM90.439 88.6136C88.9171 88.6136 87.7276 88.22 86.8704 87.4328C86.0307 86.6281 85.6109 85.4036 85.6109 83.7592V76.963C85.6109 76.5082 85.7158 76.1758 85.9257 75.9659C86.1357 75.7385 86.4855 75.6248 86.9753 75.6248H89.5206C90.0279 75.6248 90.3865 75.7385 90.5965 75.9659C90.8064 76.1758 90.9113 76.5082 90.9113 76.963V83.5493C90.9113 84.5464 91.3924 85.045 92.3545 85.045C92.8793 85.045 93.2817 84.905 93.5616 84.6251C93.8415 84.3452 93.9814 83.9516 93.9814 83.4443V76.963C93.9814 76.5082 94.0864 76.1758 94.2963 75.9659C94.5062 75.7385 94.8648 75.6248 95.3721 75.6248H97.9174C98.4247 75.6248 98.7833 75.7385 98.9933 75.9659C99.2032 76.1758 99.3081 76.5082 99.3081 76.963V87.4066C99.3081 87.7389 99.2469 87.9576 99.1245 88.0626C99.0195 88.1675 98.7833 88.22 98.416 88.22H95.7133C95.5033 88.22 95.3372 88.1938 95.2147 88.1413C95.1097 88.0888 95.0485 87.9838 95.031 87.8264L94.8998 87.013C94.3925 87.5028 93.7628 87.8964 93.0105 88.1938C92.2583 88.4737 91.4012 88.6136 90.439 88.6136ZM103.389 74.2866C102.795 74.2866 102.34 74.1291 102.025 73.8142C101.71 73.4819 101.553 73.097 101.553 72.6597V72.0299C101.553 71.5751 101.71 71.1902 102.025 70.8754C102.34 70.543 102.795 70.3768 103.389 70.3768H105.279C105.891 70.3768 106.355 70.543 106.669 70.8754C106.984 71.1902 107.142 71.5751 107.142 72.0299V72.6597C107.142 73.097 106.984 73.4819 106.669 73.8142C106.355 74.1291 105.891 74.2866 105.279 74.2866H103.389ZM103.075 88.22C102.567 88.22 102.209 88.115 101.999 87.9051C101.789 87.6952 101.684 87.3628 101.684 86.908V76.963C101.684 76.5082 101.789 76.1758 101.999 75.9659C102.209 75.7385 102.567 75.6248 103.075 75.6248H105.594C106.101 75.6248 106.46 75.7385 106.669 75.9659C106.897 76.1758 107.011 76.5082 107.011 76.963V86.908C107.011 87.3628 106.897 87.6952 106.669 87.9051C106.46 88.115 106.101 88.22 105.594 88.22H103.075ZM110.05 88.22C109.613 88.22 109.315 88.1588 109.158 88.0363C109 87.8964 108.922 87.6427 108.922 87.2754C108.922 86.5406 108.974 86.0071 109.079 85.6747C109.202 85.3423 109.49 84.9487 109.945 84.4939L115.062 79.4558H110.339C109.831 79.4558 109.473 79.3509 109.263 79.141C109.053 78.931 108.948 78.5987 108.948 78.1438V76.9368C108.948 76.482 109.053 76.1496 109.263 75.9397C109.473 75.7298 109.831 75.6248 110.339 75.6248H120.493C120.878 75.6248 121.141 75.6948 121.281 75.8347C121.421 75.9572 121.491 76.1846 121.491 76.517C121.491 77.2342 121.429 77.7677 121.307 78.1176C121.202 78.4675 120.931 78.8786 120.493 79.3509L115.744 84.4152H120.415C120.922 84.4152 121.281 84.5202 121.491 84.7301C121.701 84.94 121.805 85.2724 121.805 85.7272V86.9342C121.805 87.3716 121.701 87.6952 121.491 87.9051C121.281 88.115 120.922 88.22 120.415 88.22H110.05Z" fill="#8381D9"/>
<path d="M71.7949 3.29264L105.921 15.0034C108.706 15.9589 110.188 18.9905 109.233 21.7748L97.5221 55.9014C96.5667 58.6857 93.535 60.1683 90.7507 59.2129L56.6241 47.5021C53.8398 46.5466 52.3572 43.515 53.3127 40.7307L65.0234 6.60407C65.9789 3.81977 69.0106 2.33719 71.7949 3.29264Z" fill="#8381D9" stroke="#2A2879" stroke-width="2.46"/>
<path d="M84.7002 35.3463C85.5077 33.9618 86.608 33.1762 88.2054 32.3951C90.1511 31.5673 91.5575 29.8898 92.2207 27.9572C93.0325 25.5917 92.8713 23.0005 91.7726 20.7538C90.6738 18.507 88.7276 16.7888 86.362 15.977C83.9964 15.1653 81.4053 15.3265 79.1585 16.4252C76.9118 17.5239 75.1936 19.4701 74.3818 21.8357C73.8717 23.3223 73.5568 25.2082 74.8262 27.8039C75.5097 29.2016 75.9936 30.6969 75.7808 32.2855M73.7403 38.2318L82.6597 41.2926M73.1863 44.6883L79.1326 46.7288" stroke="#2A2879" stroke-width="2.46" stroke-linecap="round" stroke-linejoin="round"/>
<rect x="9.83899" y="21.8157" width="46.74" height="46.74" rx="5.33" transform="rotate(-25.43 9.83899 21.8157)" fill="#50B2C0" stroke="#0A313C" stroke-width="2.46"/>
<g clip-path="url(#clip0_13_59)">
<path d="M29.7405 44.9412L21.818 28.2788C21.4678 27.5423 21.4245 26.6969 21.6977 25.9284C21.9708 25.16 22.5381 24.5316 23.2746 24.1814L38.5485 16.919M29.7405 44.9412C29.3903 44.2047 29.3471 43.3592 29.6202 42.5908C29.8934 41.8224 30.4607 41.1939 31.1972 40.8437L32.5857 40.1835M29.7405 44.9412C30.0907 45.6778 30.7192 46.245 31.4876 46.5182C32.256 46.7914 33.1015 46.7481 33.838 46.3979L35.2266 45.7377M58.8316 34.514L43.5578 41.7764C42.8212 42.1266 42.254 42.755 41.9808 43.5234C41.7077 44.2919 41.7509 45.1373 42.1011 45.8739M42.1011 45.8739C42.4513 46.6104 43.0798 47.1776 43.8482 47.4508C44.6166 47.724 45.4621 47.6807 46.1986 47.3305L60.7782 40.3982C60.9623 40.3107 61.1042 40.1536 61.1725 39.9615C61.2407 39.7694 61.2299 39.558 61.1424 39.3739L51.2392 18.5459C51.1516 18.3618 50.9945 18.2199 50.8024 18.1516C50.6103 18.0834 50.3989 18.0942 50.2148 18.1817L35.6352 25.114C34.8987 25.4642 34.3314 26.0926 34.0582 26.861C33.7851 27.6295 33.8283 28.475 34.1785 29.2115L42.1011 45.8739Z" stroke="#0A313C" stroke-width="2.46" stroke-linecap="round" stroke-linejoin="round"/>
</g>
<defs>
<clipPath id="clip0_13_59">
<rect width="36.9" height="36.9" fill="white" transform="translate(16.4 24.0451) rotate(-25.43)"/>
</clipPath>
</defs>
</svg>
