<svg width="119" height="39" viewBox="0 0 119 39" fill="none" xmlns="http://www.w3.org/2000/svg">
<path d="M35.178 32.9691C33.6298 32.9691 32.1645 32.8124 30.7821 32.4991C29.3998 32.1673 28.2847 31.7065 27.4368 31.1167C27.1235 30.914 26.9668 30.702 26.9668 30.4809C26.9668 30.3334 27.0221 30.1767 27.1327 30.0109L28.4874 27.8544C28.6349 27.6332 28.7823 27.5226 28.9298 27.5226C29.0219 27.5226 29.1786 27.5871 29.3998 27.7162C30.0817 28.1032 30.8559 28.4165 31.7221 28.6562C32.5884 28.8958 33.4455 29.0156 34.2933 29.0156C35.1596 29.0156 35.7954 28.8865 36.2009 28.6285C36.6249 28.3705 36.8368 27.9558 36.8368 27.3844C36.8368 26.8315 36.6064 26.3983 36.1456 26.085C35.7033 25.7717 34.8647 25.3754 33.6298 24.8962C31.7682 24.1958 30.3121 23.4124 29.2615 22.5462C28.2294 21.6615 27.7133 20.4634 27.7133 18.9521C27.7133 17.1274 28.3676 15.7358 29.6762 14.7774C30.9849 13.8189 32.7266 13.3397 34.9015 13.3397C36.4129 13.3397 37.7031 13.478 38.7721 13.7544C39.8596 14.0125 40.7811 14.418 41.5368 14.9709C41.8501 15.2105 42.0068 15.4317 42.0068 15.6344C42.0068 15.7634 41.9515 15.9109 41.8409 16.0768L40.4862 18.2332C40.3203 18.4544 40.1729 18.565 40.0439 18.565C39.9517 18.565 39.795 18.5005 39.5739 18.3715C38.5049 17.6711 37.2331 17.3209 35.7586 17.3209C34.966 17.3209 34.3578 17.4499 33.9339 17.7079C33.51 17.966 33.298 18.3899 33.298 18.9797C33.298 19.3852 33.4086 19.717 33.6298 19.975C33.8509 20.233 34.1458 20.4634 34.5145 20.6662C34.9015 20.8505 35.4913 21.0901 36.2839 21.385L36.8092 21.5785C38.1731 22.113 39.2421 22.6291 40.0162 23.1268C40.8088 23.606 41.4078 24.205 41.8133 24.9238C42.2188 25.6242 42.4215 26.5089 42.4215 27.5779C42.4215 29.2183 41.8041 30.5269 40.5692 31.5038C39.3527 32.4807 37.5556 32.9691 35.178 32.9691ZM48.803 32.9691C47.1995 32.9691 45.9461 32.5544 45.043 31.725C44.1583 30.8771 43.716 29.5869 43.716 27.8544V20.6938C43.716 20.2146 43.8265 19.8644 44.0477 19.6432C44.2689 19.4036 44.6375 19.2838 45.1536 19.2838H47.8354C48.3699 19.2838 48.7477 19.4036 48.9689 19.6432C49.1901 19.8644 49.3006 20.2146 49.3006 20.6938V27.6332C49.3006 28.6838 49.8075 29.2091 50.8212 29.2091C51.3742 29.2091 51.7981 29.0616 52.093 28.7667C52.3879 28.4718 52.5353 28.0571 52.5353 27.5226V20.6938C52.5353 20.2146 52.6459 19.8644 52.8671 19.6432C53.0883 19.4036 53.4661 19.2838 54.0006 19.2838H56.6824C57.2169 19.2838 57.5947 19.4036 57.8159 19.6432C58.0371 19.8644 58.1477 20.2146 58.1477 20.6938V31.6973C58.1477 32.0475 58.0832 32.2779 57.9542 32.3885C57.8436 32.4991 57.5947 32.5544 57.2077 32.5544H54.36C54.1389 32.5544 53.9638 32.5267 53.8347 32.4714C53.7242 32.4161 53.6597 32.3056 53.6412 32.1397L53.503 31.2826C52.9685 31.7987 52.3049 32.2134 51.5124 32.5267C50.7199 32.8216 49.8167 32.9691 48.803 32.9691ZM67.369 32.9691C65.5996 32.9691 64.2449 32.4899 63.3049 31.5314C62.3649 30.5546 61.8949 29.1999 61.8949 27.4673V23.0991H60.7614C60.2453 23.0991 59.8951 22.9977 59.7108 22.795C59.5449 22.5923 59.462 22.2421 59.462 21.7444V20.6662C59.462 20.1685 59.5449 19.8183 59.7108 19.6156C59.8951 19.3944 60.2453 19.2838 60.7614 19.2838H61.8949V18.5927C61.8949 18.1503 61.9963 17.7079 62.199 17.2656C62.4018 16.8048 62.6967 16.2519 63.0837 15.6068C63.2681 15.2934 63.4339 15.0907 63.5814 14.9985C63.7473 14.9064 64.033 14.8603 64.4384 14.8603H66.0696C66.5857 14.8603 66.9451 14.9709 67.1479 15.1921C67.369 15.4132 67.4796 15.7634 67.4796 16.2427V19.2838H69.6914C70.2075 19.2838 70.5484 19.3944 70.7143 19.6156C70.8986 19.8183 70.9908 20.1685 70.9908 20.6662V21.7444C70.9908 22.2421 70.8986 22.5923 70.7143 22.795C70.5484 22.9977 70.2075 23.0991 69.6914 23.0991H67.4796V27.3567C67.4796 27.9281 67.5902 28.352 67.8114 28.6285C68.0326 28.8865 68.392 29.0156 68.8896 29.0156C69.2029 29.0156 69.4518 28.9787 69.6361 28.905C69.8388 28.8313 70.0784 28.7022 70.3549 28.5179C70.5024 28.4258 70.6406 28.3797 70.7696 28.3797C70.9539 28.3797 71.1106 28.4903 71.2396 28.7115L72.4008 30.702C72.5298 30.9232 72.5943 31.0983 72.5943 31.2273C72.5943 31.3932 72.4837 31.5499 72.2625 31.6973C71.6359 32.1212 70.9263 32.4346 70.1337 32.6373C69.3596 32.8585 68.438 32.9691 67.369 32.9691ZM75.3424 32.5544C74.8079 32.5544 74.43 32.4438 74.2089 32.2226C73.9877 32.0014 73.8771 31.6512 73.8771 31.172V20.1409C73.8771 19.8091 73.9324 19.5879 74.043 19.4774C74.172 19.3483 74.43 19.2838 74.8171 19.2838H77.6647C77.8859 19.2838 78.0518 19.3207 78.1624 19.3944C78.2914 19.4497 78.3651 19.5603 78.3835 19.7262L78.5218 20.5279C79.6277 19.4221 80.9639 18.8691 82.5306 18.8691C83.1388 18.8691 83.6365 18.9244 84.0235 19.035C84.4106 19.1272 84.7608 19.2838 85.0741 19.505C85.2584 19.634 85.3506 19.7815 85.3506 19.9474C85.3506 20.0026 85.3322 20.104 85.2953 20.2515L84.4106 22.7673C84.3369 23.0254 84.1986 23.1544 83.9959 23.1544C83.9037 23.1544 83.7931 23.1175 83.6641 23.0438C83.1665 22.7673 82.5675 22.6291 81.8671 22.6291C81.1667 22.6291 80.5861 22.8226 80.1253 23.2097C79.683 23.5968 79.4618 24.1128 79.4618 24.7579V31.172C79.4618 31.6512 79.3512 32.0014 79.13 32.2226C78.9273 32.4438 78.5586 32.5544 78.0241 32.5544H75.3424ZM91.7906 32.9691C90.0581 32.9691 88.6665 32.4161 87.6159 31.3103C86.5838 30.186 86.0677 28.6101 86.0677 26.5826C86.0677 25.0344 86.4179 23.6797 87.1183 22.5185C87.8371 21.3574 88.8416 20.4634 90.1318 19.8368C91.4404 19.1917 92.9426 18.8691 94.6382 18.8691C96.039 18.8691 97.2739 19.0258 98.3429 19.3391C99.4304 19.634 100.426 20.0672 101.329 20.6385V31.6973C101.329 32.0475 101.264 32.2779 101.135 32.3885C101.006 32.4991 100.748 32.5544 100.361 32.5544H97.5412C97.3384 32.5544 97.1818 32.5267 97.0712 32.4714C96.9606 32.3977 96.8684 32.2871 96.7947 32.1397L96.4353 31.3103C95.9008 31.8816 95.2557 32.2963 94.5 32.5544C93.7628 32.8309 92.8596 32.9691 91.7906 32.9691ZM93.8641 29.2091C94.583 29.2091 95.1451 29.034 95.5506 28.6838C95.9561 28.3336 96.1588 27.836 96.1588 27.1909V22.8779C95.8086 22.7121 95.3663 22.6291 94.8318 22.6291C93.8549 22.6291 93.0716 22.9701 92.4818 23.6521C91.9104 24.334 91.6247 25.2924 91.6247 26.5273C91.6247 28.3152 92.3712 29.2091 93.8641 29.2091Z" fill="#8381D9"/>
<path d="M30.7821 32.4991L30.6291 33.1366L30.6372 33.1384L30.7821 32.4991ZM27.4368 31.1167L27.8112 30.5786L27.8022 30.5723L27.793 30.5664L27.4368 31.1167ZM27.1327 30.0109L27.6782 30.3745L27.6831 30.3671L27.6878 30.3596L27.1327 30.0109ZM28.4874 27.8544L27.942 27.4908L27.9371 27.4982L27.9323 27.5057L28.4874 27.8544ZM29.3998 27.7162L29.0695 28.2824L29.0762 28.2863L29.3998 27.7162ZM31.7221 28.6562L31.5474 29.288L31.5474 29.288L31.7221 28.6562ZM36.2009 28.6285L35.86 28.0685L35.849 28.0755L36.2009 28.6285ZM36.1456 26.085L35.7667 26.62L35.777 26.6271L36.1456 26.085ZM33.6298 24.8962L33.8669 24.285L33.8606 24.2826L33.6298 24.8962ZM29.2615 22.5462L28.8349 23.044L28.8445 23.0519L29.2615 22.5462ZM29.6762 14.7774L30.0636 15.3062L30.0636 15.3062L29.6762 14.7774ZM38.7721 13.7544L38.6079 14.3892L38.6208 14.3922L38.7721 13.7544ZM41.5368 14.9709L41.9351 14.4501L41.9239 14.4419L41.5368 14.9709ZM41.8409 16.0768L41.2955 15.7132L41.2906 15.7206L41.2858 15.7281L41.8409 16.0768ZM40.4862 18.2332L41.0106 18.6266L41.0269 18.6049L41.0413 18.5819L40.4862 18.2332ZM39.5739 18.3715L39.2146 18.9198L39.2289 18.9291L39.2436 18.9377L39.5739 18.3715ZM33.6298 19.975L33.1321 20.4016L33.1321 20.4016L33.6298 19.975ZM34.5145 20.6662L34.1986 21.2406L34.2153 21.2498L34.2326 21.258L34.5145 20.6662ZM36.2839 21.385L36.0553 21.9994L36.0573 22.0001L36.2839 21.385ZM36.8092 21.5785L37.0484 20.9681L37.0358 20.9634L36.8092 21.5785ZM40.0162 23.1268L39.6617 23.6782L39.6693 23.683L39.677 23.6877L40.0162 23.1268ZM41.8133 24.9238L41.2423 25.2459L41.246 25.2523L41.8133 24.9238ZM40.5692 31.5038L40.1625 30.9897L40.1587 30.9927L40.5692 31.5038ZM35.178 32.3136C33.6741 32.3136 32.2577 32.1614 30.927 31.8598L30.6372 33.1384C32.0713 33.4634 33.5855 33.6246 35.178 33.6246V32.3136ZM30.9351 31.8617C29.6043 31.5423 28.572 31.1079 27.8112 30.5786L27.0625 31.6549C27.9974 32.3052 29.1953 32.7924 30.6291 33.1365L30.9351 31.8617ZM27.793 30.5664C27.6771 30.4914 27.6278 30.4382 27.6115 30.4161C27.6047 30.4068 27.6078 30.4087 27.6127 30.422C27.6179 30.4364 27.6224 30.457 27.6224 30.4809H26.3113C26.3113 31.0441 26.7105 31.4275 27.0807 31.6671L27.793 30.5664ZM27.6224 30.4809C27.6224 30.5011 27.6147 30.4697 27.6782 30.3745L26.5873 29.6472C26.4296 29.8838 26.3113 30.1657 26.3113 30.4809H27.6224ZM27.6878 30.3596L29.0425 28.2031L27.9323 27.5057L26.5776 29.6622L27.6878 30.3596ZM29.0329 28.218C29.0561 28.1832 29.0747 28.1597 29.088 28.1448C29.1014 28.1297 29.1064 28.1266 29.1019 28.13C29.0972 28.1335 29.0798 28.1457 29.0494 28.1571C29.0177 28.169 28.9767 28.1782 28.9298 28.1782V26.8671C28.4343 26.8671 28.1158 27.23 27.942 27.4908L29.0329 28.218ZM28.9298 28.1782C28.8803 28.1782 28.8497 28.1701 28.8465 28.1693C28.8412 28.1679 28.8472 28.1691 28.8668 28.1772C28.9072 28.1938 28.9732 28.2262 29.0695 28.2824L29.7301 27.1499C29.6052 27.0771 29.4823 27.0128 29.366 26.9649C29.2636 26.9227 29.1058 26.8671 28.9298 26.8671V28.1782ZM29.0762 28.2863C29.8113 28.7035 30.6366 29.036 31.5474 29.288L31.8969 28.0244C31.0752 27.7971 30.3522 27.503 29.7233 27.1461L29.0762 28.2863ZM31.5474 29.288C32.4671 29.5424 33.383 29.6711 34.2933 29.6711V28.36C33.508 28.36 32.7097 28.2492 31.8969 28.0244L31.5474 29.288ZM34.2933 29.6711C35.1978 29.6711 35.9875 29.5413 36.5529 29.1815L35.849 28.0755C35.6034 28.2318 35.1213 28.36 34.2933 28.36V29.6711ZM36.5418 29.1885C37.1937 28.7916 37.4923 28.1435 37.4923 27.3844H36.1813C36.1813 27.768 36.056 27.9493 35.8601 28.0686L36.5418 29.1885ZM37.4923 27.3844C37.4923 26.6124 37.1528 25.9772 36.5143 25.5429L35.777 26.6271C36.06 26.8195 36.1813 27.0505 36.1813 27.3844H37.4923ZM36.5245 25.5501C36.0088 25.1848 35.1006 24.7638 33.8669 24.285L33.3926 25.5073C34.6287 25.987 35.3978 26.3585 35.7667 26.6199L36.5245 25.5501ZM33.8606 24.2826C32.0384 23.597 30.6542 22.8448 29.6786 22.0404L28.8445 23.0519C29.9701 23.98 31.498 24.7945 33.3989 25.5097L33.8606 24.2826ZM29.6882 22.0485C28.8186 21.3031 28.3688 20.2961 28.3688 18.9521H27.0578C27.0578 20.6308 27.6402 22.0198 28.8349 23.0439L29.6882 22.0485ZM28.3688 18.9521C28.3688 17.3063 28.9464 16.1244 30.0636 15.3062L29.2889 14.2485C27.7889 15.3472 27.0578 16.9485 27.0578 18.9521H28.3688ZM30.0636 15.3062C31.2271 14.4541 32.819 13.9952 34.9015 13.9952V12.6842C32.6343 12.6842 30.7426 13.1838 29.2889 14.2485L30.0636 15.3062ZM34.9015 13.9952C36.3763 13.9952 37.6081 14.1305 38.608 14.3891L38.9362 13.1198C37.798 12.8254 36.4495 12.6842 34.9015 12.6842V13.9952ZM38.6208 14.3922C39.6393 14.6339 40.4768 15.0076 41.1497 15.4999L41.9239 14.4419C41.0854 13.8283 40.0798 13.391 38.9235 13.1166L38.6208 14.3922ZM41.1386 15.4916C41.2644 15.5878 41.3273 15.6571 41.3544 15.6954C41.3803 15.732 41.3513 15.7078 41.3513 15.6344H42.6623C42.6623 15.0991 42.2698 14.7062 41.935 14.4502L41.1386 15.4916ZM41.3513 15.6344C41.3513 15.6051 41.3575 15.5958 41.3516 15.6116C41.3454 15.6279 41.33 15.6615 41.2955 15.7132L42.3864 16.4404C42.5324 16.2213 42.6623 15.9456 42.6623 15.6344H41.3513ZM41.2858 15.7281L39.9311 17.8845L41.0413 18.5819L42.396 16.4255L41.2858 15.7281ZM39.9618 17.8399C39.9322 17.8794 39.9077 17.9081 39.8887 17.9283C39.8694 17.9488 39.8589 17.9569 39.8579 17.9576C39.8566 17.9586 39.8709 17.9475 39.9006 17.9356C39.9317 17.9232 39.9809 17.9095 40.0439 17.9095V19.2205C40.2995 19.2205 40.5044 19.1116 40.6445 19.0065C40.7861 18.9003 40.9071 18.7646 41.0106 18.6266L39.9618 17.8399ZM40.0439 17.9095C40.0933 17.9095 40.1239 17.9175 40.1272 17.9184C40.1325 17.9197 40.1265 17.9186 40.1068 17.9105C40.0665 17.8939 40.0005 17.8614 39.9042 17.8053L39.2436 18.9377C39.3684 19.0105 39.4913 19.0749 39.6077 19.1228C39.71 19.1649 39.8679 19.2205 40.0439 19.2205V17.9095ZM39.9331 17.8232C38.7417 17.0426 37.3406 16.6654 35.7586 16.6654V17.9764C37.1256 17.9764 38.268 18.2996 39.2146 18.9198L39.9331 17.8232ZM35.7586 16.6654C34.9109 16.6654 34.1638 16.8006 33.593 17.148L34.2747 18.2679C34.5518 18.0992 35.0212 17.9764 35.7586 17.9764V16.6654ZM33.593 17.148C32.9341 17.5491 32.6425 18.2117 32.6425 18.9797H33.9535C33.9535 18.5681 34.0858 18.3829 34.2747 18.2679L33.593 17.148ZM32.6425 18.9797C32.6425 19.51 32.7902 20.0027 33.1321 20.4016L34.1275 19.5484C34.027 19.4312 33.9535 19.2604 33.9535 18.9797H32.6425ZM33.1321 20.4016C33.415 20.7317 33.7768 21.0086 34.1986 21.2406L34.8304 20.0918C34.5149 19.9183 34.2869 19.7343 34.1275 19.5484L33.1321 20.4016ZM34.2326 21.258C34.6466 21.4552 35.2584 21.7029 36.0553 21.9994L36.5125 20.7706C35.7242 20.4773 35.1564 20.2458 34.7963 20.0743L34.2326 21.258ZM36.0573 22.0001L36.5826 22.1936L37.0358 20.9634L36.5105 20.7699L36.0573 22.0001ZM36.57 22.1889C37.9143 22.7157 38.9389 23.2135 39.6617 23.6782L40.3707 22.5753C39.5454 22.0448 38.4319 21.5104 37.0484 20.9682L36.57 22.1889ZM39.677 23.6877C40.3851 24.1158 40.8988 24.6369 41.2423 25.2459L42.3842 24.6017C41.9168 23.7731 41.2324 23.0961 40.3554 22.5658L39.677 23.6877ZM41.246 25.2523C41.578 25.8258 41.766 26.5883 41.766 27.5779H43.077C43.077 26.4295 42.8595 25.4226 42.3806 24.5954L41.246 25.2523ZM41.766 27.5779C41.766 29.0276 41.2327 30.1431 40.1625 30.9897L40.9759 32.0179C42.3754 30.9108 43.077 29.409 43.077 27.5779H41.766ZM40.1587 30.9927C39.1058 31.8382 37.4809 32.3136 35.178 32.3136V33.6246C37.6304 33.6246 39.5996 33.1231 40.9796 32.0149L40.1587 30.9927ZM45.043 31.725L44.5893 32.1984L44.5996 32.2078L45.043 31.725ZM44.0477 19.6432L44.5112 20.1068L44.5205 20.0975L44.5294 20.0879L44.0477 19.6432ZM48.9689 19.6432L48.4872 20.0879L48.4961 20.0975L48.5054 20.1068L48.9689 19.6432ZM52.8671 19.6432L53.3306 20.1068L53.3399 20.0975L53.3488 20.0879L52.8671 19.6432ZM57.8159 19.6432L57.3342 20.0879L57.3431 20.0975L57.3524 20.1068L57.8159 19.6432ZM57.9542 32.3885L57.5275 31.8908L57.5084 31.9072L57.4906 31.925L57.9542 32.3885ZM53.8347 32.4714L53.5416 33.0578L53.5588 33.0664L53.5765 33.074L53.8347 32.4714ZM53.6412 32.1397L54.2927 32.0673L54.2909 32.0512L54.2884 32.0353L53.6412 32.1397ZM53.503 31.2826L54.1501 31.1782L53.9503 29.9395L53.0477 30.811L53.503 31.2826ZM51.5124 32.5267L51.7411 33.1412L51.7534 33.1363L51.5124 32.5267ZM48.803 32.3136C47.3118 32.3136 46.2351 31.9298 45.4864 31.2422L44.5996 32.2078C45.6571 33.179 47.0872 33.6246 48.803 33.6246V32.3136ZM45.4966 31.2517C44.7867 30.5714 44.3715 29.4835 44.3715 27.8544H43.0604C43.0604 29.6903 43.53 31.1829 44.5894 32.1983L45.4966 31.2517ZM44.3715 27.8544V20.6938H43.0604V27.8544H44.3715ZM44.3715 20.6938C44.3715 20.2978 44.4649 20.1531 44.5112 20.1068L43.5842 19.1797C43.1882 19.5757 43.0604 20.1314 43.0604 20.6938H44.3715ZM44.5294 20.0879C44.57 20.0439 44.7161 19.9393 45.1536 19.9393V18.6283C44.5589 18.6283 43.9678 18.7634 43.566 19.1986L44.5294 20.0879ZM45.1536 19.9393H47.8354V18.6283H45.1536V19.9393ZM47.8354 19.9393C48.2997 19.9393 48.4501 20.0477 48.4872 20.0879L49.4506 19.1986C49.0453 18.7596 48.4401 18.6283 47.8354 18.6283V19.9393ZM48.5054 20.1068C48.5517 20.1531 48.6451 20.2978 48.6451 20.6938H49.9562C49.9562 20.1314 49.8284 19.5757 49.4324 19.1797L48.5054 20.1068ZM48.6451 20.6938V27.6332H49.9562V20.6938H48.6451ZM48.6451 27.6332C48.6451 28.2538 48.7945 28.8407 49.2091 29.2703C49.6278 29.7043 50.2072 29.8646 50.8212 29.8646V28.5536C50.4215 28.5536 50.2406 28.4513 50.1525 28.36C50.0602 28.2643 49.9562 28.0632 49.9562 27.6332H48.6451ZM50.8212 29.8646C51.4894 29.8646 52.1026 29.6841 52.5565 29.2303L51.6295 28.3032C51.4935 28.4391 51.259 28.5536 50.8212 28.5536V29.8646ZM52.5565 29.2303C53.0064 28.7804 53.1909 28.1797 53.1909 27.5226H51.8798C51.8798 27.9346 51.7694 28.1633 51.6295 28.3032L52.5565 29.2303ZM53.1909 27.5226V20.6938H51.8798V27.5226H53.1909ZM53.1909 20.6938C53.1909 20.2978 53.2843 20.1531 53.3306 20.1068L52.4036 19.1797C52.0075 19.5757 51.8798 20.1314 51.8798 20.6938H53.1909ZM53.3488 20.0879C53.3859 20.0477 53.5363 19.9393 54.0006 19.9393V18.6283C53.3959 18.6283 52.7907 18.7596 52.3854 19.1986L53.3488 20.0879ZM54.0006 19.9393H56.6824V18.6283H54.0006V19.9393ZM56.6824 19.9393C57.1467 19.9393 57.2972 20.0477 57.3342 20.0879L58.2976 19.1986C57.8923 18.7596 57.2871 18.6283 56.6824 18.6283V19.9393ZM57.3524 20.1068C57.3987 20.1531 57.4922 20.2978 57.4922 20.6938H58.8032C58.8032 20.1314 58.6755 19.5757 58.2794 19.1797L57.3524 20.1068ZM57.4922 20.6938V31.6973H58.8032V20.6938H57.4922ZM57.4922 31.6973C57.4922 31.8376 57.4786 31.9182 57.4681 31.956C57.4571 31.9953 57.461 31.9478 57.5275 31.8908L58.3808 32.8862C58.5763 32.7186 58.677 32.5006 58.7305 32.3095C58.7845 32.1169 58.8032 31.9072 58.8032 31.6973H57.4922ZM57.4906 31.925C57.53 31.8856 57.5631 31.8693 57.5706 31.8659C57.5782 31.8624 57.5713 31.8666 57.5424 31.873C57.4821 31.8864 57.3753 31.8989 57.2077 31.8989V33.2099C57.4271 33.2099 57.6383 33.1947 57.8268 33.1528C58.0037 33.1135 58.2348 33.0349 58.4177 32.852L57.4906 31.925ZM57.2077 31.8989H54.36V33.2099H57.2077V31.8989ZM54.36 31.8989C54.1822 31.8989 54.107 31.8749 54.093 31.8689L53.5765 33.074C53.8205 33.1785 54.0955 33.2099 54.36 33.2099V31.8989ZM54.1279 31.8851C54.1908 31.9166 54.2401 31.9661 54.2697 32.0167C54.2953 32.0606 54.2948 32.0857 54.2927 32.0673L52.9897 32.2121C53.0232 32.5132 53.1656 32.8698 53.5416 33.0578L54.1279 31.8851ZM54.2884 32.0353L54.1501 31.1782L52.8558 31.387L52.9941 32.2441L54.2884 32.0353ZM53.0477 30.811C52.5833 31.2594 51.9958 31.6307 51.2714 31.9171L51.7534 33.1363C52.6141 32.7961 53.3537 32.338 53.9583 31.7542L53.0477 30.811ZM51.2838 31.9124C50.5773 32.1752 49.7538 32.3136 48.803 32.3136V33.6246C49.8797 33.6246 50.8624 33.468 51.741 33.1411L51.2838 31.9124ZM63.3049 31.5314L62.8325 31.986L62.8369 31.9904L63.3049 31.5314ZM61.8949 23.0991H62.5504V22.4436H61.8949V23.0991ZM59.7108 22.795L59.2035 23.2101L59.2143 23.2233L59.2258 23.2359L59.7108 22.795ZM59.7108 19.6156L59.2072 19.1959L59.2035 19.2005L59.7108 19.6156ZM61.8949 19.2838V19.9393H62.5504V19.2838H61.8949ZM62.199 17.2656L62.795 17.5388L62.799 17.5296L62.199 17.2656ZM63.0837 15.6068L63.6459 15.9441L63.6488 15.9391L63.0837 15.6068ZM63.5814 14.9985L63.263 14.4255L63.2483 14.4337L63.234 14.4427L63.5814 14.9985ZM67.1479 15.1921L66.6646 15.635L66.6743 15.6455L66.6843 15.6556L67.1479 15.1921ZM67.4796 19.2838H66.8241V19.9393H67.4796V19.2838ZM70.7143 19.6156L70.1899 20.0089L70.2085 20.0337L70.2293 20.0565L70.7143 19.6156ZM70.7143 22.795L70.2293 22.354L70.2178 22.3667L70.207 22.3799L70.7143 22.795ZM67.4796 23.0991V22.4436H66.8241V23.0991H67.4796ZM67.8114 28.6285L67.2995 29.038L67.3064 29.0467L67.3137 29.0551L67.8114 28.6285ZM69.6361 28.905L69.4121 28.2889L69.4023 28.2925L69.3926 28.2963L69.6361 28.905ZM70.3549 28.5179L70.0075 27.962L69.9993 27.9671L69.9913 27.9725L70.3549 28.5179ZM71.2396 28.7115L71.8058 28.3812L71.8058 28.3812L71.2396 28.7115ZM72.4008 30.702L71.8346 31.0323L71.8346 31.0323L72.4008 30.702ZM72.2625 31.6973L71.8989 31.1519L71.8953 31.1544L72.2625 31.6973ZM70.1337 32.6373L69.9713 32.0023L69.9624 32.0045L69.9536 32.007L70.1337 32.6373ZM67.369 32.3136C65.7174 32.3136 64.5541 31.8689 63.7729 31.0724L62.8369 31.9904C63.9358 33.1108 65.4818 33.6246 67.369 33.6246V32.3136ZM63.7773 31.0769C62.9849 30.2535 62.5504 29.0795 62.5504 27.4673H61.2394C61.2394 29.3203 61.7449 30.8557 62.8326 31.986L63.7773 31.0769ZM62.5504 27.4673V23.0991H61.2394V27.4673H62.5504ZM61.8949 22.4436H60.7614V23.7546H61.8949V22.4436ZM60.7614 22.4436C60.5416 22.4436 60.3909 22.4215 60.294 22.3934C60.1979 22.3656 60.1837 22.3407 60.1959 22.354L59.2258 23.2359C59.6075 23.6558 60.2086 23.7546 60.7614 23.7546V22.4436ZM60.2182 22.3799C60.2183 22.3801 60.2108 22.371 60.1997 22.3463C60.1885 22.3214 60.1749 22.2835 60.1621 22.2292C60.1358 22.1184 60.1175 21.9602 60.1175 21.7444H58.8065C58.8065 22.2754 58.8871 22.8234 59.2035 23.2101L60.2182 22.3799ZM60.1175 21.7444V20.6662H58.8065V21.7444H60.1175ZM60.1175 20.6662C60.1175 20.4504 60.1358 20.2922 60.1621 20.1814C60.1749 20.127 60.1885 20.0892 60.1997 20.0643C60.2108 20.0396 60.2183 20.0305 60.2182 20.0307L59.2035 19.2005C58.8871 19.5872 58.8065 20.1352 58.8065 20.6662H60.1175ZM60.2144 20.0352C60.2068 20.0443 60.2209 20.0197 60.3091 19.9919C60.4003 19.9631 60.5454 19.9393 60.7614 19.9393V18.6283C60.1959 18.6283 59.586 18.7414 59.2072 19.1959L60.2144 20.0352ZM60.7614 19.9393H61.8949V18.6283H60.7614V19.9393ZM62.5504 19.2838V18.5927H61.2394V19.2838H62.5504ZM62.5504 18.5927C62.5504 18.2536 62.6275 17.904 62.795 17.5387L61.6031 16.9925C61.3651 17.5119 61.2394 18.047 61.2394 18.5927H62.5504ZM62.799 17.5296C62.9867 17.103 63.2668 16.5758 63.6458 15.944L62.5216 15.2695C62.1266 15.9279 61.8168 16.5066 61.599 17.0016L62.799 17.5296ZM63.6488 15.9391C63.7299 15.8013 63.7985 15.7023 63.8537 15.6348C63.9119 15.5637 63.9382 15.5486 63.9288 15.5544L63.234 14.4427C62.9429 14.6246 62.7103 14.9487 62.5187 15.2744L63.6488 15.9391ZM63.8997 15.5716C63.8909 15.5765 63.9215 15.5586 64.0244 15.542C64.1222 15.5263 64.2579 15.5158 64.4384 15.5158V14.2048C64.0212 14.2048 63.5868 14.2457 63.263 14.4255L63.8997 15.5716ZM64.4384 15.5158H66.0696V14.2048H64.4384V15.5158ZM66.0696 15.5158C66.527 15.5158 66.6508 15.62 66.6646 15.635L67.6311 14.7491C67.2394 14.3218 66.6444 14.2048 66.0696 14.2048V15.5158ZM66.6843 15.6556C66.7306 15.7019 66.8241 15.8467 66.8241 16.2427H68.1351C68.1351 15.6802 68.0074 15.1246 67.6114 14.7285L66.6843 15.6556ZM66.8241 16.2427V19.2838H68.1351V16.2427H66.8241ZM67.4796 19.9393H69.6914V18.6283H67.4796V19.9393ZM69.6914 19.9393C69.9082 19.9393 70.0486 19.9633 70.1319 19.9903C70.2118 20.0162 70.2091 20.0345 70.1899 20.0089L71.2387 19.2223C70.8746 18.7368 70.2458 18.6283 69.6914 18.6283V19.9393ZM70.2293 20.0565C70.2438 20.0726 70.3353 20.2122 70.3353 20.6662H71.6463C71.6463 20.1249 71.5534 19.5641 71.1994 19.1746L70.2293 20.0565ZM70.3353 20.6662V21.7444H71.6463V20.6662H70.3353ZM70.3353 21.7444C70.3353 22.1984 70.2438 22.338 70.2293 22.354L71.1994 23.2359C71.5534 22.8465 71.6463 22.2857 71.6463 21.7444H70.3353ZM70.207 22.3799C70.232 22.3492 70.236 22.3684 70.1474 22.3947C70.0581 22.4213 69.912 22.4436 69.6914 22.4436V23.7546C70.2321 23.7546 70.8528 23.6609 71.2217 23.2101L70.207 22.3799ZM69.6914 22.4436H67.4796V23.7546H69.6914V22.4436ZM66.8241 23.0991V27.3567H68.1351V23.0991H66.8241ZM66.8241 27.3567C66.8241 27.992 66.9434 28.5929 67.2995 29.038L68.3233 28.219C68.237 28.1112 68.1351 27.8642 68.1351 27.3567H66.8241ZM67.3137 29.0551C67.7084 29.5156 68.2915 29.6711 68.8896 29.6711V28.36C68.4925 28.36 68.3568 28.2575 68.3091 28.2019L67.3137 29.0551ZM68.8896 29.6711C69.2436 29.6711 69.5861 29.631 69.8795 29.5136L69.3926 28.2963C69.3174 28.3264 69.1623 28.36 68.8896 28.36V29.6711ZM69.8601 29.521C70.1309 29.4226 70.4192 29.2629 70.7185 29.0633L69.9913 27.9725C69.7377 28.1416 69.5467 28.24 69.4121 28.2889L69.8601 29.521ZM70.7023 29.0738C70.7807 29.0248 70.7992 29.0352 70.7696 29.0352V27.7242C70.482 27.7242 70.224 27.8267 70.0075 27.962L70.7023 29.0738ZM70.7696 29.0352C70.749 29.0352 70.725 29.0319 70.7004 29.024C70.6761 29.0161 70.6582 29.0059 70.6473 28.9982C70.6278 28.9844 70.6411 28.9864 70.6734 29.0417L71.8058 28.3812C71.6105 28.0463 71.2733 27.7242 70.7696 27.7242V29.0352ZM70.6734 29.0417L71.8346 31.0323L72.967 30.3717L71.8058 28.3812L70.6734 29.0417ZM71.8346 31.0323C71.8863 31.1211 71.9157 31.1847 71.9308 31.2259C71.9472 31.2704 71.9388 31.2664 71.9388 31.2273H73.2498C73.2498 30.9151 73.1073 30.6123 72.967 30.3717L71.8346 31.0323ZM71.9388 31.2273C71.9388 31.1945 71.9445 31.1636 71.9535 31.1374C71.9622 31.112 71.972 31.0967 71.9758 31.0912C71.9794 31.0862 71.9775 31.0901 71.9647 31.1018C71.952 31.1134 71.9311 31.1305 71.8989 31.1519L72.6262 32.2428C72.9166 32.0491 73.2498 31.7202 73.2498 31.2273H71.9388ZM71.8953 31.1544C71.3359 31.5327 70.6967 31.8167 69.9713 32.0023L70.2962 33.2724C71.1559 33.0525 71.9358 32.7098 72.6298 32.2403L71.8953 31.1544ZM69.9536 32.007C69.2536 32.207 68.3958 32.3136 67.369 32.3136V33.6246C68.4803 33.6246 69.4656 33.51 70.3138 33.2676L69.9536 32.007ZM74.2089 32.2226L74.6724 31.7591L74.6724 31.7591L74.2089 32.2226ZM74.043 19.4774L73.5794 19.0138L73.5794 19.0138L74.043 19.4774ZM78.1624 19.3944L77.7988 19.9398L77.8488 19.9732L77.9041 19.9969L78.1624 19.3944ZM78.3835 19.7262L77.732 19.7986L77.7342 19.8181L77.7376 19.8376L78.3835 19.7262ZM78.5218 20.5279L77.8758 20.6393L78.0907 21.886L78.9853 20.9915L78.5218 20.5279ZM84.0235 19.035L83.8434 19.6653L83.8575 19.6693L83.8717 19.6727L84.0235 19.035ZM85.0741 19.505L84.6961 20.0405L84.6982 20.042L85.0741 19.505ZM85.2953 20.2515L85.9137 20.4689L85.9238 20.4401L85.9312 20.4105L85.2953 20.2515ZM84.4106 22.7673L83.7922 22.5499L83.7857 22.5684L83.7803 22.5873L84.4106 22.7673ZM83.6641 23.0438L83.9894 22.4746L83.9825 22.4708L83.6641 23.0438ZM80.1253 23.2097L79.7036 22.7077L79.6936 22.7164L80.1253 23.2097ZM79.13 32.2226L78.6665 31.7591L78.6564 31.7692L78.6468 31.7797L79.13 32.2226ZM75.3424 31.8989C74.8665 31.8989 74.7079 31.7947 74.6724 31.7591L73.7453 32.6861C74.1521 33.0929 74.7493 33.2099 75.3424 33.2099V31.8989ZM74.6724 31.7591C74.6261 31.7128 74.5326 31.568 74.5326 31.172H73.2216C73.2216 31.7345 73.3493 32.2901 73.7453 32.6861L74.6724 31.7591ZM74.5326 31.172V20.1409H73.2216V31.172H74.5326ZM74.5326 20.1409C74.5326 20.0066 74.5443 19.9261 74.5545 19.8852C74.5657 19.8403 74.5652 19.8822 74.5065 19.9409L73.5794 19.0138C73.4102 19.1831 73.3267 19.3909 73.2826 19.5672C73.2375 19.7475 73.2216 19.9434 73.2216 20.1409H74.5326ZM74.5065 19.9409C74.457 19.9903 74.4289 19.984 74.4922 19.9682C74.5516 19.9533 74.6552 19.9393 74.8171 19.9393V18.6283C74.5919 18.6283 74.373 18.6466 74.1743 18.6963C73.9795 18.7449 73.7579 18.8353 73.5794 19.0138L74.5065 19.9409ZM74.8171 19.9393H77.6647V18.6283H74.8171V19.9393ZM77.6647 19.9393C77.741 19.9393 77.7881 19.9459 77.8128 19.9514C77.8378 19.9569 77.8267 19.9584 77.7988 19.9398L78.526 18.849C78.2577 18.6701 77.938 18.6283 77.6647 18.6283V19.9393ZM77.9041 19.9969C77.8587 19.9774 77.8067 19.939 77.769 19.8824C77.7348 19.8311 77.7315 19.7937 77.732 19.7986L79.0351 19.6538C78.9964 19.306 78.8113 18.9594 78.4206 18.7919L77.9041 19.9969ZM77.7376 19.8376L77.8758 20.6393L79.1678 20.4166L79.0295 19.6148L77.7376 19.8376ZM78.9853 20.9915C79.968 20.0088 81.1374 19.5246 82.5306 19.5246V18.2136C80.7904 18.2136 79.2873 18.8354 78.0583 20.0644L78.9853 20.9915ZM82.5306 19.5246C83.1056 19.5246 83.5367 19.5777 83.8434 19.6653L84.2036 18.4047C83.7363 18.2712 83.172 18.2136 82.5306 18.2136V19.5246ZM83.8717 19.6727C84.1806 19.7463 84.4535 19.8693 84.6961 20.0405L85.4521 18.9695C85.0681 18.6983 84.6405 18.5081 84.1754 18.3973L83.8717 19.6727ZM84.6982 20.042C84.7385 20.0702 84.7377 20.0791 84.7256 20.0598C84.7191 20.0493 84.7108 20.033 84.7044 20.0114C84.698 19.9895 84.6951 19.9675 84.6951 19.9474H86.0061C86.0061 19.4961 85.7414 19.172 85.45 18.968L84.6982 20.042ZM84.6951 19.9474C84.6951 19.9274 84.6966 19.917 84.6961 19.9209C84.6958 19.9235 84.6947 19.9319 84.6918 19.9476C84.686 19.9794 84.6758 20.0268 84.6593 20.0925L85.9312 20.4105C85.966 20.2714 86.0061 20.095 86.0061 19.9474H84.6951ZM84.6769 20.034L83.7922 22.5499L85.029 22.9848L85.9137 20.4689L84.6769 20.034ZM83.7803 22.5873C83.7631 22.6473 83.7573 22.6223 83.8043 22.5784C83.8298 22.5547 83.8637 22.5323 83.9039 22.5171C83.9432 22.5022 83.9762 22.4989 83.9959 22.4989V23.8099C84.2502 23.8099 84.4991 23.7233 84.6989 23.5369C84.8842 23.3639 84.9843 23.1454 85.0409 22.9474L83.7803 22.5873ZM83.9959 22.4989C84.0165 22.4989 84.0317 22.5009 84.0406 22.5025C84.0494 22.5042 84.0531 22.5055 84.0511 22.5049C84.0492 22.5042 84.0429 22.502 84.0321 22.497C84.0214 22.4921 84.0072 22.4848 83.9894 22.4747L83.3389 23.613C83.5125 23.7121 83.74 23.8099 83.9959 23.8099V22.4989ZM83.9825 22.4708C83.3674 22.1291 82.6535 21.9736 81.8671 21.9736V23.2846C82.4815 23.2846 82.9655 23.4056 83.3458 23.6168L83.9825 22.4708ZM81.8671 21.9736C81.0391 21.9736 80.3015 22.2056 79.7037 22.7078L80.5469 23.7116C80.8707 23.4397 81.2943 23.2846 81.8671 23.2846V21.9736ZM79.6936 22.7164C79.0942 23.2409 78.8063 23.9445 78.8063 24.7579H80.1173C80.1173 24.2812 80.2718 23.9526 80.557 23.703L79.6936 22.7164ZM78.8063 24.7579V31.172H80.1173V24.7579H78.8063ZM78.8063 31.172C78.8063 31.568 78.7128 31.7128 78.6665 31.7591L79.5935 32.6861C79.9896 32.2901 80.1173 31.7345 80.1173 31.172H78.8063ZM78.6468 31.7797C78.6363 31.7911 78.5084 31.8989 78.0241 31.8989V33.2099C78.6089 33.2099 79.2183 33.0964 79.6132 32.6656L78.6468 31.7797ZM78.0241 31.8989H75.3424V33.2099H78.0241V31.8989ZM87.6159 31.3103L87.133 31.7536L87.1407 31.7618L87.6159 31.3103ZM87.1183 22.5185L86.5609 22.1735L86.557 22.18L87.1183 22.5185ZM90.1318 19.8368L90.4182 20.4264L90.4216 20.4247L90.1318 19.8368ZM98.3429 19.3391L98.1585 19.9683L98.1714 19.9718L98.3429 19.3391ZM101.329 20.6385H101.984V20.2776L101.679 20.0846L101.329 20.6385ZM101.135 32.3885L100.709 31.8908L100.709 31.8908L101.135 32.3885ZM97.0712 32.4714L96.7076 33.0169L96.7415 33.0395L96.778 33.0578L97.0712 32.4714ZM96.7947 32.1397L96.1932 32.4003L96.2004 32.4168L96.2084 32.4328L96.7947 32.1397ZM96.4353 31.3103L97.0368 31.0496L96.6394 30.1326L95.9566 30.8624L96.4353 31.3103ZM94.5 32.5544L94.2882 31.934L94.279 31.9372L94.2698 31.9406L94.5 32.5544ZM95.5506 28.6838L95.9791 29.1799L95.9791 29.1799L95.5506 28.6838ZM96.1588 22.8779H96.8144V22.4631L96.4395 22.2855L96.1588 22.8779ZM92.4818 23.6521L91.9859 23.2232L91.9793 23.2311L92.4818 23.6521ZM91.7906 32.3136C90.211 32.3136 89.0007 31.8162 88.0912 30.8588L87.1407 31.7618C88.3323 33.0161 89.9052 33.6246 91.7906 33.6246V32.3136ZM88.0988 30.867C87.21 29.8988 86.7232 28.501 86.7232 26.5826H85.4122C85.4122 28.7192 85.9575 30.4731 87.133 31.7536L88.0988 30.867ZM86.7232 26.5826C86.7232 25.1365 87.0492 23.9023 87.6796 22.8571L86.557 22.18C85.7866 23.4571 85.4122 24.9323 85.4122 26.5826H86.7232ZM87.6756 22.8636C88.3258 21.8134 89.2338 21.0017 90.4182 20.4264L89.8454 19.2471C88.4494 19.9252 87.3484 20.9013 86.5609 22.1735L87.6756 22.8636ZM90.4216 20.4247C91.6266 19.8308 93.0268 19.5246 94.6382 19.5246V18.2136C92.8583 18.2136 91.2543 18.5526 89.8419 19.2488L90.4216 20.4247ZM94.6382 19.5246C95.9919 19.5246 97.1625 19.6762 98.1586 19.9682L98.5273 18.7101C97.3853 18.3753 96.0862 18.2136 94.6382 18.2136V19.5246ZM98.1714 19.9718C99.199 20.2505 100.134 20.658 100.978 21.1925L101.679 20.0846C100.718 19.4763 99.6618 19.0176 98.5145 18.7065L98.1714 19.9718ZM100.673 20.6385V31.6973H101.984V20.6385H100.673ZM100.673 31.6973C100.673 31.8376 100.66 31.9182 100.649 31.956C100.638 31.9953 100.642 31.9478 100.709 31.8908L101.562 32.8862C101.757 32.7186 101.858 32.5006 101.912 32.3095C101.966 32.1169 101.984 31.9072 101.984 31.6973H100.673ZM100.709 31.8908C100.761 31.8462 100.784 31.8557 100.708 31.8719C100.639 31.8866 100.528 31.8989 100.361 31.8989V33.2099C100.582 33.2099 100.793 33.1945 100.982 33.1539C101.165 33.1148 101.381 33.0414 101.562 32.8862L100.709 31.8908ZM100.361 31.8989H97.5412V33.2099H100.361V31.8989ZM97.5412 31.8989C97.4682 31.8989 97.4177 31.8938 97.3855 31.8881C97.3526 31.8823 97.3496 31.8777 97.3643 31.8851L96.778 33.0578C97.02 33.1787 97.2942 33.2099 97.5412 33.2099V31.8989ZM97.4348 31.926C97.4394 31.9291 97.4159 31.9162 97.381 31.8465L96.2084 32.4328C96.321 32.6581 96.4818 32.8663 96.7076 33.0169L97.4348 31.926ZM97.3962 31.879L97.0368 31.0496L95.8338 31.5709L96.1932 32.4003L97.3962 31.879ZM95.9566 30.8624C95.4971 31.3536 94.9443 31.71 94.2882 31.934L94.7118 33.1747C95.5671 32.8827 96.3045 32.4097 96.914 31.7581L95.9566 30.8624ZM94.2698 31.9406C93.6273 32.1815 92.8073 32.3136 91.7906 32.3136V33.6246C92.912 33.6246 93.8982 33.4802 94.7302 33.1682L94.2698 31.9406ZM93.8641 29.8646C94.686 29.8646 95.419 29.6636 95.9791 29.1799L95.1221 28.1877C94.8712 28.4044 94.4799 28.5536 93.8641 28.5536V29.8646ZM95.9791 29.1799C96.5581 28.6798 96.8144 27.9839 96.8144 27.1909H95.5033C95.5033 27.688 95.3541 27.9874 95.1221 28.1877L95.9791 29.1799ZM96.8144 27.1909V22.8779H95.5033V27.1909H96.8144ZM96.4395 22.2855C95.9748 22.0654 95.4287 21.9736 94.8318 21.9736V23.2846C95.3039 23.2846 95.6424 23.3587 95.8782 23.4704L96.4395 22.2855ZM94.8318 21.9736C93.6825 21.9736 92.7116 22.3843 91.986 23.2232L92.9776 24.0809C93.4316 23.5559 94.0273 23.2846 94.8318 23.2846V21.9736ZM91.9793 23.2311C91.2767 24.0697 90.9692 25.1978 90.9692 26.5273H92.2802C92.2802 25.3871 92.5441 24.5984 92.9843 24.073L91.9793 23.2311ZM90.9692 26.5273C90.9692 27.4964 91.1691 28.3453 91.6814 28.9588C92.2127 29.595 92.9825 29.8646 93.8641 29.8646V28.5536C93.2529 28.5536 92.9029 28.3762 92.6877 28.1185C92.4536 27.8381 92.2802 27.3461 92.2802 26.5273H90.9692Z" fill="#2A2879"/>
<path d="M99.4327 9.04237L102.965 11.4121M102.384 8.4612L100.014 11.9933M106.787 15.2573L106.796 15.2632M110.621 15.2686L110.63 15.2745M112.983 10.4506L103.588 4.1471C102.714 3.56096 101.653 3.31968 100.612 3.46991C99.57 3.62014 98.621 4.15121 97.9482 4.96045C97.9121 5.00281 97.8795 5.04371 97.8432 5.08459C97.3723 5.63176 93.8531 9.72436 92.9384 11.0877C92.467 11.7903 92.2941 12.6514 92.4576 13.4815C92.621 14.3116 93.1076 15.0427 93.8102 15.5141C94.6932 16.1065 95.4309 15.9612 96.1686 15.816L98.2549 15.4051C98.8083 15.296 99.3823 15.4112 99.8507 15.7253L103.687 18.2988C104.155 18.6132 104.479 19.1006 104.588 19.654L104.999 21.7403C105.144 22.478 105.289 23.2157 106.172 23.8082C106.875 24.2795 107.736 24.4525 108.566 24.289C109.396 24.1255 110.127 23.639 110.599 22.9364C111.514 21.5721 113.966 16.7648 114.294 16.1216C114.317 16.0733 114.343 16.0268 114.368 15.9782C114.862 15.0488 114.994 13.9691 114.738 12.9481C114.482 11.9271 113.857 11.0373 112.983 10.4506Z" stroke="#2A2879" stroke-width="1.48585" stroke-linecap="round" stroke-linejoin="round"/>
<path d="M12.2347 20.7203L20.3415 33.2062M12.2347 20.7203C11.6204 19.7741 10.6554 19.1108 9.55205 18.8761C8.44866 18.6415 7.29725 18.8548 6.35111 19.4691L1.89185 22.3644C1.65532 22.5179 1.48948 22.7592 1.43082 23.035C1.37216 23.3109 1.42548 23.5987 1.57905 23.8353L9.10677 35.4293C9.26034 35.6659 9.50159 35.8317 9.77744 35.8904C10.0533 35.949 10.3411 35.8957 10.5777 35.7421L15.9288 32.2678C16.6384 31.8071 17.5019 31.6471 18.3295 31.8231C19.157 31.9991 19.8808 32.4966 20.3415 33.2062M12.2347 20.7203C11.6204 19.7741 11.4071 18.6227 11.6418 17.5193C11.8764 16.4159 12.5398 15.451 13.4859 14.8367L17.9452 11.9414C18.1817 11.7878 18.4696 11.7345 18.7454 11.7931C19.0213 11.8518 19.2625 12.0176 19.4161 12.2542L26.9438 23.8482C27.0974 24.0848 27.1507 24.3726 27.092 24.6485C27.0334 24.9243 26.8675 25.1656 26.631 25.3192L21.2799 28.7935C20.5703 29.2542 20.0728 29.978 19.8968 30.8055C19.7208 31.633 19.8808 32.4966 20.3415 33.2062M18.6974 22.8633L20.4811 21.7052M16.3812 19.2959L18.1649 18.1378M9.7789 28.6539L11.5626 27.4958M7.46268 25.0865L9.24638 23.9284" stroke="#2A2879" stroke-width="1.48585" stroke-linecap="round" stroke-linejoin="round"/>
</svg>
