<svg width="136" height="45" viewBox="0 0 136 45" fill="none" xmlns="http://www.w3.org/2000/svg">
<path d="M40.1041 37.55C38.3327 37.55 36.6562 37.3708 35.0746 37.0123C33.493 36.6327 32.2172 36.1055 31.2472 35.4307C30.8887 35.1987 30.7094 34.9562 30.7094 34.7032C30.7094 34.5344 30.7727 34.3552 30.8992 34.1654L32.4492 31.6981C32.6179 31.4451 32.7866 31.3186 32.9553 31.3186C33.0607 31.3186 33.24 31.3924 33.493 31.54C34.2733 31.9828 35.159 32.3413 36.1501 32.6155C37.1412 32.8896 38.1218 33.0267 39.0918 33.0267C40.083 33.0267 40.8105 32.8791 41.2744 32.5838C41.7595 32.2886 42.002 31.8141 42.002 31.1604C42.002 30.5278 41.7384 30.0322 41.2112 29.6737C40.7051 29.3152 39.7456 28.8618 38.3327 28.3135C36.2028 27.5122 34.5369 26.616 33.3349 25.6248C32.1539 24.6126 31.5635 23.2419 31.5635 21.5127C31.5635 19.425 32.3121 17.8329 33.8093 16.7363C35.3066 15.6398 37.2994 15.0915 39.7877 15.0915C41.5169 15.0915 42.9931 15.2496 44.2162 15.566C45.4604 15.8612 46.5148 16.3251 47.3794 16.9578C47.7378 17.2319 47.9171 17.4849 47.9171 17.7169C47.9171 17.8645 47.8538 18.0332 47.7273 18.223L46.1773 20.6903C45.9876 20.9433 45.8189 21.0699 45.6712 21.0699C45.5658 21.0699 45.3866 20.9961 45.1335 20.8485C43.9104 20.0471 42.4553 19.6464 40.7683 19.6464C39.8615 19.6464 39.1656 19.7941 38.6806 20.0893C38.1956 20.3845 37.9531 20.8695 37.9531 21.5444C37.9531 22.0083 38.0796 22.3879 38.3327 22.6831C38.5857 22.9783 38.9231 23.2419 39.3449 23.4739C39.7877 23.6848 40.4625 23.9589 41.3693 24.2963L41.9703 24.5177C43.5308 25.1293 44.7539 25.7197 45.6396 26.2891C46.5464 26.8374 47.2317 27.5227 47.6957 28.3452C48.1596 29.1465 48.3916 30.1587 48.3916 31.3818C48.3916 33.2586 47.6851 34.7559 46.2722 35.8735C44.8804 36.9912 42.8244 37.55 40.1041 37.55ZM55.6928 37.55C53.8582 37.55 52.4242 37.0755 51.3909 36.1266C50.3787 35.1565 49.8726 33.6804 49.8726 31.6981V23.5055C49.8726 22.9572 49.9991 22.5566 50.2522 22.3035C50.5052 22.0294 50.927 21.8923 51.5174 21.8923H54.5857C55.1973 21.8923 55.6296 22.0294 55.8826 22.3035C56.1357 22.5566 56.2622 22.9572 56.2622 23.5055V31.4451C56.2622 32.6471 56.8421 33.2481 58.0019 33.2481C58.6346 33.2481 59.1196 33.0794 59.457 32.742C59.7944 32.4046 59.9631 31.9301 59.9631 31.3186V23.5055C59.9631 22.9572 60.0896 22.5566 60.3427 22.3035C60.5957 22.0294 61.028 21.8923 61.6396 21.8923H64.7079C65.3194 21.8923 65.7517 22.0294 66.0048 22.3035C66.2578 22.5566 66.3843 22.9572 66.3843 23.5055V36.0949C66.3843 36.4956 66.3105 36.7592 66.1629 36.8857C66.0364 37.0123 65.7517 37.0755 65.3089 37.0755H62.0508C61.7977 37.0755 61.5974 37.0439 61.4498 36.9806C61.3233 36.9174 61.2495 36.7908 61.2284 36.6011L61.0702 35.6205C60.4587 36.2109 59.6995 36.6854 58.7927 37.0439C57.8859 37.3813 56.8526 37.55 55.6928 37.55ZM76.9348 37.55C74.9103 37.55 73.3604 37.0017 72.2849 35.9052C71.2094 34.7875 70.6717 33.2375 70.6717 31.2553V26.2575H69.3748C68.7843 26.2575 68.3836 26.1415 68.1728 25.9095C67.983 25.6776 67.8881 25.2769 67.8881 24.7075V23.4739C67.8881 22.9045 67.983 22.5038 68.1728 22.2719C68.3836 22.0188 68.7843 21.8923 69.3748 21.8923H70.6717V21.1015C70.6717 20.5954 70.7877 20.0893 71.0196 19.5832C71.2516 19.056 71.589 18.4234 72.0318 17.6853C72.2427 17.3268 72.4325 17.0948 72.6012 16.9894C72.791 16.8839 73.1179 16.8312 73.5818 16.8312H75.4481C76.0385 16.8312 76.4497 16.9578 76.6817 17.2108C76.9348 17.4639 77.0613 17.8645 77.0613 18.4128V21.8923H79.5918C80.1823 21.8923 80.5724 22.0188 80.7622 22.2719C80.9731 22.5038 81.0785 22.9045 81.0785 23.4739V24.7075C81.0785 25.2769 80.9731 25.6776 80.7622 25.9095C80.5724 26.1415 80.1823 26.2575 79.5918 26.2575H77.0613V31.1288C77.0613 31.7825 77.1878 32.2675 77.4409 32.5838C77.6939 32.8791 78.1051 33.0267 78.6745 33.0267C79.033 33.0267 79.3177 32.9845 79.5286 32.9001C79.7605 32.8158 80.0347 32.6682 80.351 32.4573C80.5197 32.3519 80.6778 32.2991 80.8255 32.2991C81.0363 32.2991 81.2156 32.4257 81.3632 32.6787L82.6917 34.9562C82.8393 35.2093 82.9132 35.4096 82.9132 35.5572C82.9132 35.747 82.7866 35.9262 82.5336 36.0949C81.8166 36.58 81.0047 36.9385 80.0979 37.1704C79.2122 37.4235 78.1579 37.55 76.9348 37.55ZM86.0573 37.0755C85.4458 37.0755 85.0135 36.949 84.7604 36.696C84.5073 36.4429 84.3808 36.0422 84.3808 35.4939V22.8729C84.3808 22.4933 84.4441 22.2402 84.5706 22.1137C84.7182 21.9661 85.0135 21.8923 85.4563 21.8923H88.7144C88.9674 21.8923 89.1572 21.9345 89.2837 22.0188C89.4314 22.0821 89.5157 22.2086 89.5368 22.3984L89.6949 23.3157C90.9602 22.0505 92.4891 21.4178 94.2815 21.4178C94.9774 21.4178 95.5468 21.4811 95.9897 21.6076C96.4325 21.7131 96.8332 21.8923 97.1917 22.1454C97.4025 22.293 97.508 22.4617 97.508 22.6515C97.508 22.7147 97.4869 22.8307 97.4447 22.9994L96.4325 25.8779C96.3482 26.1731 96.19 26.3207 95.958 26.3207C95.8526 26.3207 95.7261 26.2786 95.5784 26.1942C95.0091 25.8779 94.3237 25.7197 93.5224 25.7197C92.721 25.7197 92.0568 25.9412 91.5296 26.384C91.0235 26.8269 90.7704 27.4173 90.7704 28.1554V35.4939C90.7704 36.0422 90.6439 36.4429 90.3908 36.696C90.1589 36.949 89.7371 37.0755 89.1256 37.0755H86.0573ZM104.876 37.55C102.894 37.55 101.302 36.9174 100.1 35.6521C98.9189 34.3657 98.3284 32.5627 98.3284 30.2431C98.3284 28.4717 98.7291 26.9217 99.5304 25.5932C100.353 24.2647 101.502 23.2419 102.978 22.5249C104.476 21.7869 106.194 21.4178 108.134 21.4178C109.737 21.4178 111.15 21.5971 112.373 21.9556C113.617 22.293 114.756 22.7885 115.789 23.4423V36.0949C115.789 36.4956 115.715 36.7592 115.568 36.8857C115.42 37.0123 115.125 37.0755 114.682 37.0755H111.456C111.224 37.0755 111.044 37.0439 110.918 36.9806C110.791 36.8963 110.686 36.7698 110.602 36.6011L110.19 35.6521C109.579 36.3058 108.841 36.7803 107.976 37.0755C107.133 37.3918 106.099 37.55 104.876 37.55ZM107.249 33.2481C108.071 33.2481 108.714 33.0478 109.178 32.6471C109.642 32.2464 109.874 31.677 109.874 30.939V26.0044C109.473 25.8146 108.967 25.7197 108.356 25.7197C107.238 25.7197 106.342 26.1099 105.667 26.8901C105.013 27.6704 104.686 28.7669 104.686 30.1798C104.686 32.2253 105.54 33.2481 107.249 33.2481Z" fill="#8381D9"/>
<path d="M35.0746 37.0123L34.8996 37.7416L34.9088 37.7437L35.0746 37.0123ZM31.2472 35.4307L31.6755 34.815L31.6652 34.8078L31.6546 34.801L31.2472 35.4307ZM30.8992 34.1654L31.5233 34.5814L31.5289 34.573L31.5343 34.5644L30.8992 34.1654ZM32.4492 31.6981L31.8251 31.2821L31.8195 31.2906L31.8141 31.2992L32.4492 31.6981ZM33.493 31.54L33.1151 32.1879L33.1228 32.1922L33.493 31.54ZM36.1501 32.6155L35.9502 33.3383L36.1501 32.6155ZM41.2744 32.5838L40.8845 31.9432L40.8781 31.9471L40.8718 31.9511L41.2744 32.5838ZM41.2112 29.6737L40.7777 30.2857L40.7835 30.2899L40.7894 30.2939L41.2112 29.6737ZM38.3327 28.3135L38.604 27.6143L38.5968 27.6116L38.3327 28.3135ZM33.3349 25.6248L32.8468 26.1943L32.8522 26.1989L32.8577 26.2035L33.3349 25.6248ZM33.8093 16.7363L34.2525 17.3414L33.8093 16.7363ZM44.2162 15.566L44.0284 16.2921L44.0357 16.294L44.043 16.2957L44.2162 15.566ZM47.3794 16.9578L47.8349 16.362L47.8286 16.3572L47.8222 16.3525L47.3794 16.9578ZM47.7273 18.223L47.1033 17.807L47.0976 17.8155L47.0922 17.8241L47.7273 18.223ZM46.1773 20.6903L46.7773 21.1403L46.7959 21.1155L46.8124 21.0893L46.1773 20.6903ZM45.1335 20.8485L44.7225 21.4758L44.7388 21.4865L44.7556 21.4963L45.1335 20.8485ZM38.3327 22.6831L37.7632 23.1712L37.7632 23.1712L38.3327 22.6831ZM39.3449 23.4739L38.9835 24.131L39.0027 24.1416L39.0224 24.151L39.3449 23.4739ZM41.3693 24.2963L41.1078 24.9992L41.11 25.0001L41.3693 24.2963ZM41.9703 24.5177L42.244 23.8194L42.2368 23.8166L42.2296 23.814L41.9703 24.5177ZM45.6396 26.2891L45.234 26.92L45.2427 26.9256L45.2515 26.9309L45.6396 26.2891ZM47.6957 28.3452L47.0424 28.7137L47.0466 28.721L47.6957 28.3452ZM46.2722 35.8735L45.8069 35.2853L45.8026 35.2887L46.2722 35.8735ZM40.1041 36.8C38.3834 36.8 36.7629 36.6259 35.2404 36.2808L34.9088 37.7437C36.5495 38.1156 38.282 38.3 40.1041 38.3V36.8ZM35.2496 36.283C33.727 35.9175 32.546 35.4206 31.6755 34.815L30.8189 36.0464C31.8885 36.7904 33.2591 37.3478 34.8996 37.7416L35.2496 36.283ZM31.6546 34.801C31.5221 34.7153 31.4657 34.6543 31.447 34.629C31.4392 34.6184 31.4428 34.6206 31.4483 34.6359C31.4543 34.6523 31.4594 34.6759 31.4594 34.7032H29.9594C29.9594 35.3475 30.4161 35.7863 30.8397 36.0604L31.6546 34.801ZM31.4594 34.7032C31.4594 34.7263 31.4507 34.6903 31.5233 34.5814L30.2752 33.7494C30.0947 34.0201 29.9594 34.3426 29.9594 34.7032H31.4594ZM31.5343 34.5644L33.0843 32.0971L31.8141 31.2992L30.2641 33.7664L31.5343 34.5644ZM33.0732 32.1142C33.0998 32.0743 33.1211 32.0474 33.1363 32.0303C33.1516 32.0131 33.1574 32.0096 33.1522 32.0135C33.1468 32.0175 33.1269 32.0315 33.0921 32.0445C33.0558 32.0581 33.009 32.0686 32.9553 32.0686V30.5686C32.3884 30.5686 32.024 30.9838 31.8251 31.2821L33.0732 32.1142ZM32.9553 32.0686C32.8987 32.0686 32.8637 32.0594 32.86 32.0584C32.8539 32.0568 32.8608 32.0582 32.8832 32.0674C32.9294 32.0864 33.0049 32.1235 33.1151 32.1878L33.8709 30.8921C33.7281 30.8088 33.5874 30.7352 33.4544 30.6804C33.3373 30.6322 33.1567 30.5686 32.9553 30.5686V32.0686ZM33.1228 32.1922C33.9638 32.6696 34.9081 33.0501 35.9502 33.3383L36.35 31.8926C35.4099 31.6326 34.5827 31.2961 33.8632 30.8877L33.1228 32.1922ZM35.9502 33.3383C37.0025 33.6294 38.0503 33.7767 39.0918 33.7767V32.2767C38.1933 32.2767 37.2799 32.1498 36.35 31.8926L35.9502 33.3383ZM39.0918 33.7767C40.1267 33.7767 41.0302 33.6282 41.6771 33.2166L40.8718 31.9511C40.5908 32.1299 40.0392 32.2767 39.0918 32.2767V33.7767ZM41.6644 33.2245C42.4103 32.7704 42.752 32.029 42.752 31.1604H41.252C41.252 31.5993 41.1086 31.8068 40.8845 31.9432L41.6644 33.2245ZM42.752 31.1604C42.752 30.2771 42.3635 29.5503 41.6329 29.0535L40.7894 30.2939C41.1132 30.5141 41.252 30.7784 41.252 31.1604H42.752ZM41.6447 29.0617C41.0546 28.6437 40.0155 28.1621 38.604 27.6143L38.0613 29.0127C39.4756 29.5616 40.3555 29.9867 40.7777 30.2857L41.6447 29.0617ZM38.5968 27.6116C36.5119 26.8272 34.9282 25.9666 33.812 25.0462L32.8577 26.2035C34.1455 27.2654 35.8937 28.1972 38.0686 29.0155L38.5968 27.6116ZM33.823 25.0554C32.8281 24.2026 32.3135 23.0505 32.3135 21.5127H30.8135C30.8135 23.4334 31.4798 25.0226 32.8468 26.1943L33.823 25.0554ZM32.3135 21.5127C32.3135 19.6297 32.9743 18.2775 34.2525 17.3414L33.3662 16.1313C31.6499 17.3882 30.8135 19.2204 30.8135 21.5127H32.3135ZM34.2525 17.3414C35.5837 16.3664 37.4051 15.8415 39.7877 15.8415V14.3415C37.1937 14.3415 35.0294 14.9131 33.3662 16.1313L34.2525 17.3414ZM39.7877 15.8415C41.4751 15.8415 42.8845 15.9962 44.0284 16.2921L44.404 14.8398C43.1017 14.5031 41.5588 14.3415 39.7877 14.3415V15.8415ZM44.043 16.2957C45.2084 16.5722 46.1666 16.9997 46.9365 17.563L47.8222 16.3525C46.8629 15.6505 45.7124 15.1502 44.3893 14.8362L44.043 16.2957ZM46.9238 17.5535C47.0677 17.6636 47.1396 17.7429 47.1706 17.7867C47.2003 17.8285 47.1671 17.8009 47.1671 17.7169H48.6671C48.6671 17.1045 48.218 16.6549 47.8349 16.362L46.9238 17.5535ZM47.1671 17.7169C47.1671 17.6834 47.1742 17.6727 47.1674 17.6908C47.1604 17.7095 47.1427 17.7479 47.1033 17.807L48.3513 18.639C48.5185 18.3883 48.6671 18.073 48.6671 17.7169H47.1671ZM47.0922 17.8241L45.5423 20.2913L46.8124 21.0893L48.3624 18.622L47.0922 17.8241ZM45.5773 20.2403C45.5435 20.2854 45.5155 20.3183 45.4937 20.3414C45.4716 20.3648 45.4596 20.3741 45.4585 20.375C45.457 20.3761 45.4733 20.3634 45.5074 20.3498C45.5429 20.3356 45.5992 20.3199 45.6712 20.3199V21.8199C45.9638 21.8199 46.1982 21.6952 46.3585 21.575C46.5205 21.4535 46.6589 21.2983 46.7773 21.1403L45.5773 20.2403ZM45.6712 20.3199C45.7278 20.3199 45.7629 20.3291 45.7665 20.33C45.7726 20.3316 45.7658 20.3303 45.7433 20.321C45.6971 20.302 45.6216 20.2649 45.5114 20.2006L44.7556 21.4963C44.8985 21.5796 45.0391 21.6532 45.1722 21.708C45.2893 21.7562 45.4699 21.8199 45.6712 21.8199V20.3199ZM45.5445 20.2211C44.1814 19.328 42.5784 18.8964 40.7683 18.8964V20.3964C42.3323 20.3964 43.6395 20.7662 44.7225 21.4758L45.5445 20.2211ZM40.7683 18.8964C39.7985 18.8964 38.9437 19.0511 38.2907 19.4486L39.0706 20.7299C39.3876 20.537 39.9246 20.3964 40.7683 20.3964V18.8964ZM38.2907 19.4486C37.5367 19.9076 37.2031 20.6656 37.2031 21.5444H38.7031C38.7031 21.0735 38.8545 20.8615 39.0706 20.7299L38.2907 19.4486ZM37.2031 21.5444C37.2031 22.1511 37.3721 22.7148 37.7632 23.1712L38.9021 22.195C38.7872 22.0609 38.7031 21.8655 38.7031 21.5444H37.2031ZM37.7632 23.1712C38.087 23.5489 38.5009 23.8656 38.9835 24.131L39.7063 22.8167C39.3454 22.6182 39.0845 22.4077 38.9021 22.195L37.7632 23.1712ZM39.0224 24.151C39.4961 24.3766 40.1961 24.66 41.1078 24.9992L41.6309 23.5934C40.729 23.2578 40.0794 22.9929 39.6673 22.7967L39.0224 24.151ZM41.11 25.0001L41.7111 25.2215L42.2296 23.814L41.6286 23.5926L41.11 25.0001ZM41.6967 25.216C43.2347 25.8188 44.407 26.3883 45.234 26.92L46.0452 25.6582C45.1009 25.0512 43.827 24.4398 42.244 23.8194L41.6967 25.216ZM45.2515 26.9309C46.0616 27.4207 46.6494 28.0169 47.0424 28.7137L48.3489 27.9767C47.8141 27.0286 47.0311 26.2541 46.0277 25.6473L45.2515 26.9309ZM47.0466 28.721C47.4265 29.3771 47.6416 30.2496 47.6416 31.3818H49.1416C49.1416 30.0679 48.8927 28.9159 48.3447 27.9694L47.0466 28.721ZM47.6416 31.3818C47.6416 33.0405 47.0315 34.3167 45.8069 35.2853L46.7375 36.4617C48.3388 35.1951 49.1416 33.4768 49.1416 31.3818H47.6416ZM45.8026 35.2887C44.598 36.2561 42.7388 36.8 40.1041 36.8V38.3C42.9099 38.3 45.1629 37.7262 46.7418 36.4583L45.8026 35.2887ZM51.3909 36.1266L50.872 36.6681L50.8777 36.6736L50.8836 36.679L51.3909 36.1266ZM50.2522 22.3035L50.7825 22.8338L50.7931 22.8232L50.8033 22.8122L50.2522 22.3035ZM55.8826 22.3035L55.3315 22.8122L55.3417 22.8232L55.3523 22.8338L55.8826 22.3035ZM60.3427 22.3035L60.873 22.8338L60.8836 22.8232L60.8938 22.8122L60.3427 22.3035ZM66.0048 22.3035L65.4537 22.8122L65.4638 22.8232L65.4744 22.8338L66.0048 22.3035ZM66.1629 36.8857L65.6748 36.3163L65.653 36.335L65.6326 36.3554L66.1629 36.8857ZM61.4498 36.9806L61.1144 37.6515L61.1341 37.6613L61.1544 37.67L61.4498 36.9806ZM61.2284 36.6011L61.9738 36.5182L61.9717 36.4999L61.9688 36.4816L61.2284 36.6011ZM61.0702 35.6205L61.8106 35.501L61.582 34.0838L60.5493 35.0809L61.0702 35.6205ZM58.7927 37.0439L59.0543 37.7468L59.0614 37.7442L59.0685 37.7414L58.7927 37.0439ZM55.6928 36.8C53.9867 36.8 52.7549 36.3609 51.8982 35.5742L50.8836 36.679C52.0935 37.7902 53.7297 38.3 55.6928 38.3V36.8ZM51.9098 35.5851C51.0976 34.8067 50.6226 33.5621 50.6226 31.6981H49.1226C49.1226 33.7987 49.6598 35.5064 50.872 36.6681L51.9098 35.5851ZM50.6226 31.6981V23.5055H49.1226V31.6981H50.6226ZM50.6226 23.5055C50.6226 23.0525 50.7295 22.8868 50.7825 22.8338L49.7218 21.7732C49.2687 22.2263 49.1226 22.862 49.1226 23.5055H50.6226ZM50.8033 22.8122C50.8497 22.7619 51.0169 22.6423 51.5174 22.6423V21.1423C50.837 21.1423 50.1607 21.2969 49.7011 21.7948L50.8033 22.8122ZM51.5174 22.6423H54.5857V21.1423H51.5174V22.6423ZM54.5857 22.6423C55.1169 22.6423 55.2891 22.7663 55.3315 22.8122L56.4337 21.7948C55.97 21.2925 55.2776 21.1423 54.5857 21.1423V22.6423ZM55.3523 22.8338C55.4053 22.8868 55.5122 23.0525 55.5122 23.5055H57.0122C57.0122 22.862 56.866 22.2263 56.4129 21.7732L55.3523 22.8338ZM55.5122 23.5055V31.4451H57.0122V23.5055H55.5122ZM55.5122 31.4451C55.5122 32.1551 55.6831 32.8266 56.1574 33.3181C56.6365 33.8146 57.2995 33.9981 58.0019 33.9981V32.4981C57.5446 32.4981 57.3377 32.3811 57.2368 32.2766C57.1312 32.1671 57.0122 31.9371 57.0122 31.4451H55.5122ZM58.0019 33.9981C58.7664 33.9981 59.468 33.7916 59.9873 33.2723L58.9267 32.2117C58.7711 32.3672 58.5027 32.4981 58.0019 32.4981V33.9981ZM59.9873 33.2723C60.502 32.7576 60.7131 32.0703 60.7131 31.3186H59.2131C59.2131 31.7899 59.0867 32.0516 58.9267 32.2117L59.9873 33.2723ZM60.7131 31.3186V23.5055H59.2131V31.3186H60.7131ZM60.7131 23.5055C60.7131 23.0525 60.82 22.8868 60.873 22.8338L59.8123 21.7732C59.3592 22.2263 59.2131 22.862 59.2131 23.5055H60.7131ZM60.8938 22.8122C60.9362 22.7663 61.1083 22.6423 61.6396 22.6423V21.1423C60.9477 21.1423 60.2553 21.2925 59.7916 21.7948L60.8938 22.8122ZM61.6396 22.6423H64.7079V21.1423H61.6396V22.6423ZM64.7079 22.6423C65.2391 22.6423 65.4112 22.7663 65.4537 22.8122L66.5559 21.7948C66.0922 21.2925 65.3997 21.1423 64.7079 21.1423V22.6423ZM65.4744 22.8338C65.5274 22.8868 65.6343 23.0524 65.6343 23.5055H67.1343C67.1343 22.862 66.9882 22.2263 66.5351 21.7732L65.4744 22.8338ZM65.6343 23.5055V36.0949H67.1343V23.5055H65.6343ZM65.6343 36.0949C65.6343 36.2555 65.6189 36.3477 65.6068 36.3909C65.5942 36.4359 65.5987 36.3815 65.6748 36.3163L66.651 37.4552C66.8747 37.2634 66.99 37.014 67.0512 36.7954C67.1129 36.575 67.1343 36.3351 67.1343 36.0949H65.6343ZM65.6326 36.3554C65.6777 36.3103 65.7155 36.2917 65.7241 36.2878C65.7328 36.2838 65.7249 36.2886 65.6918 36.2959C65.6228 36.3113 65.5006 36.3255 65.3089 36.3255V37.8255C65.5599 37.8255 65.8015 37.8081 66.0172 37.7602C66.2196 37.7152 66.484 37.6253 66.6932 37.4161L65.6326 36.3554ZM65.3089 36.3255H62.0508V37.8255H65.3089V36.3255ZM62.0508 36.3255C61.8473 36.3255 61.7613 36.2982 61.7452 36.2913L61.1544 37.67C61.4335 37.7896 61.7482 37.8255 62.0508 37.8255V36.3255ZM61.7852 36.3098C61.8571 36.3458 61.9136 36.4024 61.9474 36.4604C61.9767 36.5106 61.9761 36.5392 61.9738 36.5182L60.483 36.6839C60.5212 37.0284 60.6842 37.4364 61.1144 37.6515L61.7852 36.3098ZM61.9688 36.4816L61.8106 35.501L60.3298 35.7399L60.4879 36.7205L61.9688 36.4816ZM60.5493 35.0809C60.0179 35.5939 59.3458 36.0188 58.517 36.3464L59.0685 37.7414C60.0532 37.3521 60.8994 36.8279 61.5912 36.16L60.5493 35.0809ZM58.5312 36.341C57.7229 36.6417 56.7806 36.8 55.6928 36.8V38.3C56.9247 38.3 58.049 38.1209 59.0543 37.7468L58.5312 36.341ZM72.2849 35.9052L71.7444 36.4252L71.7494 36.4303L72.2849 35.9052ZM70.6717 26.2575H71.4217V25.5075H70.6717V26.2575ZM68.1728 25.9095L67.5923 26.3845L67.6047 26.3996L67.6178 26.414L68.1728 25.9095ZM68.1728 22.2719L67.5966 21.7917L67.5923 21.797L68.1728 22.2719ZM70.6717 21.8923V22.6423H71.4217V21.8923H70.6717ZM71.0196 19.5832L71.7015 19.8957L71.7061 19.8852L71.0196 19.5832ZM72.0318 17.6853L72.675 18.0712L72.6783 18.0655L72.0318 17.6853ZM72.6012 16.9894L72.237 16.3338L72.2201 16.3431L72.2037 16.3534L72.6012 16.9894ZM76.6817 17.2108L76.1288 17.7176L76.1399 17.7296L76.1514 17.7411L76.6817 17.2108ZM77.0613 21.8923H76.3113V22.6423H77.0613V21.8923ZM80.7622 22.2719L80.1622 22.7219L80.1834 22.7502L80.2072 22.7764L80.7622 22.2719ZM80.7622 25.9095L80.2072 25.405L80.1941 25.4195L80.1817 25.4346L80.7622 25.9095ZM77.0613 26.2575V25.5075H76.3113V26.2575H77.0613ZM77.4409 32.5838L76.8552 33.0523L76.8632 33.0623L76.8714 33.0719L77.4409 32.5838ZM79.5286 32.9001L79.2723 32.1953L79.2611 32.1994L79.25 32.2038L79.5286 32.9001ZM80.351 32.4573L79.9535 31.8213L79.9441 31.8271L79.935 31.8333L80.351 32.4573ZM81.3632 32.6787L82.011 32.3008L81.3632 32.6787ZM82.6917 34.9562L82.0439 35.3341L82.6917 34.9562ZM82.5336 36.0949L82.1175 35.4709L82.1133 35.4737L82.5336 36.0949ZM80.0979 37.1704L79.9121 36.4438L79.9019 36.4464L79.8919 36.4493L80.0979 37.1704ZM76.9348 36.8C75.0451 36.8 73.7141 36.2913 72.8203 35.38L71.7494 36.4303C73.0067 37.7122 74.7755 38.3 76.9348 38.3V36.8ZM72.8253 35.3851C71.9188 34.443 71.4217 33.0998 71.4217 31.2553H69.9217C69.9217 33.3753 70.5 35.132 71.7445 36.4252L72.8253 35.3851ZM71.4217 31.2553V26.2575H69.9217V31.2553H71.4217ZM70.6717 25.5075H69.3748V27.0075H70.6717V25.5075ZM69.3748 25.5075C69.1233 25.5075 68.9509 25.4822 68.84 25.4501C68.73 25.4182 68.7138 25.3898 68.7277 25.405L67.6178 26.414C68.0546 26.8945 68.7423 27.0075 69.3748 27.0075V25.5075ZM68.7532 25.4346C68.7534 25.4348 68.7449 25.4244 68.7322 25.3962C68.7193 25.3676 68.7038 25.3244 68.6891 25.2622C68.659 25.1354 68.6381 24.9544 68.6381 24.7075H67.1381C67.1381 25.3151 67.2303 25.942 67.5923 26.3845L68.7532 25.4346ZM68.6381 24.7075V23.4739H67.1381V24.7075H68.6381ZM68.6381 23.4739C68.6381 23.227 68.659 23.046 68.6891 22.9192C68.7038 22.857 68.7193 22.8138 68.7322 22.7853C68.7449 22.757 68.7534 22.7466 68.7532 22.7468L67.5923 21.797C67.2303 22.2394 67.1381 22.8664 67.1381 23.4739H68.6381ZM68.7489 22.752C68.7403 22.7624 68.7564 22.7342 68.8573 22.7024C68.9616 22.6694 69.1277 22.6423 69.3748 22.6423V21.1423C68.7278 21.1423 68.03 21.2717 67.5966 21.7917L68.7489 22.752ZM69.3748 22.6423H70.6717V21.1423H69.3748V22.6423ZM71.4217 21.8923V21.1015H69.9217V21.8923H71.4217ZM71.4217 21.1015C71.4217 20.7136 71.5099 20.3136 71.7014 19.8957L70.3378 19.2707C70.0655 19.8649 69.9217 20.4772 69.9217 21.1015H71.4217ZM71.7061 19.8852C71.9209 19.3972 72.2412 18.794 72.675 18.0712L71.3887 17.2994C70.9368 18.0527 70.5823 18.7148 70.3331 19.2811L71.7061 19.8852ZM72.6783 18.0655C72.7711 17.9078 72.8496 17.7946 72.9128 17.7174C72.9794 17.636 73.0094 17.6187 72.9987 17.6254L72.2037 16.3534C71.8707 16.5615 71.6046 16.9324 71.3854 17.305L72.6783 18.0655ZM72.9654 17.645C72.9553 17.6506 72.9903 17.6302 73.1081 17.6112C73.2199 17.5932 73.3753 17.5812 73.5818 17.5812V16.0812C73.1045 16.0812 72.6074 16.128 72.237 16.3338L72.9654 17.645ZM73.5818 17.5812H75.4481V16.0812H73.5818V17.5812ZM75.4481 17.5812C75.9713 17.5812 76.1131 17.7004 76.1288 17.7176L77.2346 16.704C76.7864 16.2151 76.1057 16.0812 75.4481 16.0812V17.5812ZM76.1514 17.7411C76.2044 17.7941 76.3113 17.9597 76.3113 18.4128H77.8113C77.8113 17.7693 77.6651 17.1336 77.212 16.6805L76.1514 17.7411ZM76.3113 18.4128V21.8923H77.8113V18.4128H76.3113ZM77.0613 22.6423H79.5918V21.1423H77.0613V22.6423ZM79.5918 22.6423C79.8399 22.6423 80.0005 22.6697 80.0959 22.7006C80.1873 22.7303 80.1842 22.7512 80.1622 22.7219L81.3622 21.8219C80.9456 21.2664 80.2261 21.1423 79.5918 21.1423V22.6423ZM80.2072 22.7764C80.2239 22.7947 80.3285 22.9545 80.3285 23.4739H81.8285C81.8285 22.8546 81.7222 22.213 81.3172 21.7674L80.2072 22.7764ZM80.3285 23.4739V24.7075H81.8285V23.4739H80.3285ZM80.3285 24.7075C80.3285 25.227 80.2239 25.3867 80.2072 25.405L81.3172 26.414C81.7222 25.9684 81.8285 25.3268 81.8285 24.7075H80.3285ZM80.1817 25.4346C80.2104 25.3995 80.2149 25.4214 80.1135 25.4516C80.0114 25.482 79.8442 25.5075 79.5918 25.5075V27.0075C80.2105 27.0075 80.9206 26.9003 81.3427 26.3845L80.1817 25.4346ZM79.5918 25.5075H77.0613V27.0075H79.5918V25.5075ZM76.3113 26.2575V31.1288H77.8113V26.2575H76.3113ZM76.3113 31.1288C76.3113 31.8556 76.4478 32.5431 76.8552 33.0523L78.0265 32.1153C77.9278 31.9919 77.8113 31.7094 77.8113 31.1288H76.3113ZM76.8714 33.0719C77.323 33.5987 77.9901 33.7767 78.6745 33.7767V32.2767C78.2201 32.2767 78.0648 32.1594 78.0103 32.0957L76.8714 33.0719ZM78.6745 33.7767C79.0795 33.7767 79.4714 33.7308 79.8071 33.5965L79.25 32.2038C79.164 32.2382 78.9865 32.2767 78.6745 32.2767V33.7767ZM79.7849 33.605C80.0947 33.4923 80.4246 33.3096 80.767 33.0813L79.935 31.8333C79.6448 32.0267 79.4263 32.1393 79.2723 32.1953L79.7849 33.605ZM80.7485 33.0933C80.8382 33.0372 80.8593 33.0491 80.8255 33.0491V31.5491C80.4964 31.5491 80.2012 31.6665 79.9535 31.8213L80.7485 33.0933ZM80.8255 33.0491C80.8019 33.0491 80.7744 33.0454 80.7463 33.0363C80.7185 33.0273 80.698 33.0156 80.6855 33.0068C80.6632 32.991 80.6784 32.9933 80.7154 33.0566L82.011 32.3008C81.7875 31.9177 81.4018 31.5491 80.8255 31.5491V33.0491ZM80.7154 33.0566L82.0439 35.3341L83.3396 34.5783L82.011 32.3008L80.7154 33.0566ZM82.0439 35.3341C82.1031 35.4357 82.1367 35.5084 82.154 35.5555C82.1728 35.6065 82.1632 35.6019 82.1632 35.5572H83.6632C83.6632 35.1999 83.5001 34.8535 83.3396 34.5783L82.0439 35.3341ZM82.1632 35.5572C82.1632 35.5196 82.1697 35.4843 82.18 35.4543C82.1899 35.4253 82.2011 35.4077 82.2055 35.4015C82.2096 35.3957 82.2074 35.4002 82.1928 35.4136C82.1783 35.4269 82.1543 35.4464 82.1175 35.4709L82.9496 36.719C83.2819 36.4975 83.6632 36.1211 83.6632 35.5572H82.1632ZM82.1133 35.4737C81.4734 35.9066 80.742 36.2315 79.9121 36.4438L80.2838 37.897C81.2674 37.6454 82.1597 37.2533 82.9538 36.7162L82.1133 35.4737ZM79.8919 36.4493C79.091 36.6781 78.1095 36.8 76.9348 36.8V38.3C78.2062 38.3 79.3335 38.1689 80.304 37.8916L79.8919 36.4493ZM84.7604 36.6959L85.2907 36.1656L84.7604 36.6959ZM84.5706 22.1137L84.0403 21.5834L84.0403 21.5834L84.5706 22.1137ZM89.2837 22.0188L88.8677 22.6429L88.925 22.6811L88.9883 22.7082L89.2837 22.0188ZM89.5368 22.3984L88.7914 22.4812L88.7939 22.5036L88.7977 22.5258L89.5368 22.3984ZM89.6949 23.3157L88.9559 23.4432L89.2018 24.8696L90.2253 23.8461L89.6949 23.3157ZM95.9897 21.6076L95.7836 22.3288L95.7997 22.3333L95.8159 22.3372L95.9897 21.6076ZM97.1917 22.1454L96.7592 22.7581L96.7616 22.7598L97.1917 22.1454ZM97.4447 22.9994L98.1523 23.2482L98.1638 23.2152L98.1723 23.1813L97.4447 22.9994ZM96.4325 25.8779L95.725 25.6291L95.7175 25.6503L95.7114 25.6719L96.4325 25.8779ZM95.5785 26.1942L95.9506 25.543L95.9427 25.5386L95.5785 26.1942ZM91.5296 26.384L91.0472 25.8097L91.0414 25.8146L91.0357 25.8196L91.5296 26.384ZM90.3908 36.6959L89.8605 36.1656L89.849 36.1771L89.838 36.1892L90.3908 36.6959ZM86.0573 36.3255C85.5128 36.3255 85.3314 36.2063 85.2907 36.1656L84.2301 37.2263C84.6955 37.6917 85.3787 37.8255 86.0573 37.8255V36.3255ZM85.2907 36.1656C85.2377 36.1126 85.1308 35.947 85.1308 35.4939H83.6308C83.6308 36.1374 83.777 36.7732 84.2301 37.2263L85.2907 36.1656ZM85.1308 35.4939V22.8729H83.6308V35.4939H85.1308ZM85.1308 22.8729C85.1308 22.7193 85.1442 22.6271 85.1559 22.5803C85.1687 22.529 85.1681 22.5769 85.1009 22.6441L84.0403 21.5834C83.8466 21.7771 83.7511 22.0148 83.7007 22.2165C83.6491 22.4228 83.6308 22.6469 83.6308 22.8729H85.1308ZM85.1009 22.6441C85.0443 22.7006 85.0122 22.6934 85.0846 22.6753C85.1525 22.6583 85.2711 22.6423 85.4563 22.6423V21.1423C85.1987 21.1423 84.9482 21.1632 84.7208 21.22C84.498 21.2757 84.2445 21.3792 84.0403 21.5834L85.1009 22.6441ZM85.4563 22.6423H88.7144V21.1423H85.4563V22.6423ZM88.7144 22.6423C88.8016 22.6423 88.8555 22.6498 88.8838 22.6561C88.9124 22.6624 88.8996 22.6641 88.8677 22.6429L89.6998 21.3948C89.3927 21.1901 89.0271 21.1423 88.7144 21.1423V22.6423ZM88.9883 22.7082C88.9363 22.6859 88.8768 22.6419 88.8337 22.5772C88.7945 22.5184 88.7908 22.4757 88.7914 22.4812L90.2822 22.3156C90.238 21.9176 90.0262 21.5211 89.5792 21.3295L88.9883 22.7082ZM88.7977 22.5258L88.9559 23.4432L90.434 23.1883L90.2759 22.271L88.7977 22.5258ZM90.2253 23.8461C91.3496 22.7217 92.6876 22.1678 94.2815 22.1678V20.6678C92.2906 20.6678 90.5708 21.3792 89.1646 22.7854L90.2253 23.8461ZM94.2815 22.1678C94.9395 22.1678 95.4326 22.2285 95.7836 22.3288L96.1957 20.8865C95.661 20.7337 95.0154 20.6678 94.2815 20.6678V22.1678ZM95.8159 22.3372C96.1694 22.4214 96.4816 22.5622 96.7592 22.7581L97.6242 21.5326C97.1847 21.2224 96.6956 21.0047 96.1634 20.878L95.8159 22.3372ZM96.7616 22.7598C96.8077 22.7921 96.8068 22.8022 96.7929 22.7801C96.7854 22.7681 96.776 22.7495 96.7687 22.7247C96.7613 22.6997 96.758 22.6745 96.758 22.6515H98.258C98.258 22.1351 97.9552 21.7643 97.6218 21.5309L96.7616 22.7598ZM96.758 22.6515C96.758 22.6286 96.7597 22.6167 96.7592 22.6212C96.7588 22.6241 96.7575 22.6338 96.7543 22.6517C96.7477 22.6881 96.7359 22.7423 96.7171 22.8175L98.1723 23.1813C98.2121 23.0222 98.258 22.8204 98.258 22.6515H96.758ZM96.7372 22.7506L95.725 25.6291L97.14 26.1267L98.1523 23.2482L96.7372 22.7506ZM95.7114 25.6719C95.6917 25.7406 95.6851 25.712 95.7389 25.6617C95.768 25.6346 95.8068 25.609 95.8527 25.5916C95.8978 25.5746 95.9355 25.5707 95.958 25.5707V27.0707C96.249 27.0707 96.5338 26.9716 96.7624 26.7583C96.9743 26.5605 97.0889 26.3104 97.1536 26.0839L95.7114 25.6719ZM95.958 25.5707C95.9816 25.5707 95.999 25.5731 96.0092 25.5749C96.0193 25.5768 96.0235 25.5784 96.0212 25.5776C96.019 25.5769 96.0119 25.5743 95.9995 25.5686C95.9872 25.5629 95.9709 25.5547 95.9506 25.543L95.2063 26.8454C95.4049 26.9589 95.6653 27.0707 95.958 27.0707V25.5707ZM95.9427 25.5386C95.239 25.1477 94.4221 24.9697 93.5224 24.9697V26.4697C94.2253 26.4697 94.7792 26.6081 95.2142 26.8498L95.9427 25.5386ZM93.5224 24.9697C92.575 24.9697 91.7311 25.2352 91.0472 25.8097L92.012 26.9583C92.3824 26.6471 92.8671 26.4697 93.5224 26.4697V24.9697ZM91.0357 25.8196C90.3498 26.4197 90.0204 27.2247 90.0204 28.1554H91.5204C91.5204 27.6099 91.6971 27.234 92.0235 26.9484L91.0357 25.8196ZM90.0204 28.1554V35.4939H91.5204V28.1554H90.0204ZM90.0204 35.4939C90.0204 35.947 89.9135 36.1126 89.8605 36.1656L90.9212 37.2263C91.3743 36.7732 91.5204 36.1374 91.5204 35.4939H90.0204ZM89.838 36.1892C89.8259 36.2023 89.6796 36.3255 89.1256 36.3255V37.8255C89.7946 37.8255 90.4918 37.6957 90.9437 37.2027L89.838 36.1892ZM89.1256 36.3255H86.0573V37.8255H89.1256V36.3255ZM100.1 35.6521L99.5472 36.1594L99.5561 36.1687L100.1 35.6521ZM99.5304 25.5932L98.8927 25.1984L98.8882 25.2058L99.5304 25.5932ZM102.978 22.5249L103.306 23.1996L103.31 23.1976L102.978 22.5249ZM112.373 21.9556L112.162 22.6753L112.169 22.6774L112.177 22.6794L112.373 21.9556ZM115.789 23.4423H116.539V23.0293L116.19 22.8084L115.789 23.4423ZM115.568 36.8857L115.08 36.3163V36.3163L115.568 36.8857ZM110.918 36.9806L110.502 37.6047L110.541 37.6306L110.582 37.6515L110.918 36.9806ZM110.602 36.6011L109.913 36.8993L109.922 36.9181L109.931 36.9365L110.602 36.6011ZM110.19 35.6521L110.878 35.3539L110.424 34.3047L109.643 35.1397L110.19 35.6521ZM107.976 37.0755L107.734 36.3658L107.723 36.3694L107.713 36.3733L107.976 37.0755ZM109.178 32.6471L109.668 33.2147L109.178 32.6471ZM109.874 26.0044H110.624V25.5298L110.195 25.3266L109.874 26.0044ZM105.667 26.8901L105.1 26.3994L105.092 26.4084L105.667 26.8901ZM104.876 36.8C103.069 36.8 101.684 36.2309 100.644 35.1355L99.5561 36.1687C100.919 37.6038 102.719 38.3 104.876 38.3V36.8ZM100.652 35.1449C99.6354 34.0372 99.0784 32.4379 99.0784 30.2431H97.5784C97.5784 32.6876 98.2024 34.6943 99.5473 36.1593L100.652 35.1449ZM99.0784 30.2431C99.0784 28.5885 99.4514 27.1764 100.173 25.9806L98.8882 25.2058C98.0068 26.6671 97.5784 28.3549 97.5784 30.2431H99.0784ZM100.168 25.988C100.912 24.7864 101.951 23.8578 103.306 23.1996L102.651 21.8503C101.053 22.6261 99.7938 23.7429 98.8927 25.1984L100.168 25.988ZM103.31 23.1976C104.688 22.5181 106.291 22.1678 108.134 22.1678V20.6678C106.098 20.6678 104.263 21.0557 102.647 21.8522L103.31 23.1976ZM108.134 22.1678C109.683 22.1678 111.022 22.3413 112.162 22.6753L112.584 21.2358C111.277 20.8529 109.791 20.6678 108.134 20.6678V22.1678ZM112.177 22.6794C113.352 22.9983 114.422 23.4645 115.388 24.0761L116.19 22.8084C115.09 22.1125 113.882 21.5877 112.569 21.2317L112.177 22.6794ZM115.039 23.4423V36.0949H116.539V23.4423H115.039ZM115.039 36.0949C115.039 36.2555 115.024 36.3477 115.012 36.3909C114.999 36.4359 115.004 36.3815 115.08 36.3163L116.056 37.4552C116.28 37.2634 116.395 37.014 116.456 36.7954C116.518 36.575 116.539 36.3351 116.539 36.0949H115.039ZM115.08 36.3163C115.139 36.2653 115.165 36.2761 115.078 36.2947C115 36.3115 114.873 36.3255 114.682 36.3255V37.8255C114.934 37.8255 115.176 37.808 115.393 37.7614C115.601 37.7168 115.849 37.6327 116.056 37.4552L115.08 36.3163ZM114.682 36.3255H111.456V37.8255H114.682V36.3255ZM111.456 36.3255C111.372 36.3255 111.314 36.3197 111.278 36.3132C111.24 36.3066 111.236 36.3014 111.253 36.3098L110.582 37.6515C110.859 37.7899 111.173 37.8255 111.456 37.8255V36.3255ZM111.334 36.3566C111.339 36.3601 111.312 36.3454 111.272 36.2656L109.931 36.9365C110.06 37.1941 110.244 37.4325 110.502 37.6047L111.334 36.3566ZM111.29 36.3029L110.878 35.3539L109.502 35.9503L109.913 36.8993L111.29 36.3029ZM109.643 35.1397C109.117 35.7017 108.484 36.1094 107.734 36.3658L108.218 37.7853C109.197 37.4512 110.041 36.9099 110.738 36.1645L109.643 35.1397ZM107.713 36.3733C106.978 36.649 106.039 36.8 104.876 36.8V38.3C106.159 38.3 107.288 38.1347 108.239 37.7778L107.713 36.3733ZM107.249 33.9981C108.189 33.9981 109.028 33.7681 109.668 33.2147L108.688 32.0795C108.401 32.3274 107.953 32.4981 107.249 32.4981V33.9981ZM109.668 33.2147C110.331 32.6425 110.624 31.8463 110.624 30.939H109.124C109.124 31.5078 108.953 31.8503 108.688 32.0795L109.668 33.2147ZM110.624 30.939V26.0044H109.124V30.939H110.624ZM110.195 25.3266C109.664 25.0748 109.039 24.9697 108.356 24.9697V26.4697C108.896 26.4697 109.283 26.5544 109.553 26.6822L110.195 25.3266ZM108.356 24.9697C107.041 24.9697 105.93 25.4396 105.1 26.3995L106.234 27.3807C106.754 26.7801 107.435 26.4697 108.356 26.4697V24.9697ZM105.092 26.4084C104.288 27.3679 103.936 28.6586 103.936 30.1798H105.436C105.436 28.8752 105.738 27.9728 106.242 27.3718L105.092 26.4084ZM103.936 30.1798C103.936 31.2885 104.165 32.2597 104.751 32.9617C105.359 33.6896 106.24 33.9981 107.249 33.9981V32.4981C106.549 32.4981 106.149 32.2952 105.903 32.0003C105.635 31.6795 105.436 31.1166 105.436 30.1798H103.936Z" fill="#2A2879"/>
<path d="M113.62 10.3457L117.661 13.057M116.996 9.68075L114.285 13.7219M122.034 17.4564L122.045 17.4631M126.421 17.4692L126.431 17.476M129.123 11.9569L118.374 4.74486C117.374 4.07424 116.16 3.79819 114.969 3.97007C113.777 4.14195 112.691 4.74956 111.921 5.67544C111.88 5.7239 111.843 5.7707 111.801 5.81748C111.262 6.44351 107.236 11.126 106.189 12.6859C105.65 13.4897 105.452 14.4748 105.639 15.4246C105.826 16.3743 106.383 17.2109 107.187 17.7502C108.197 18.428 109.041 18.2618 109.885 18.0955L112.272 17.6254C112.905 17.5006 113.562 17.6324 114.098 17.9918L118.487 20.9363C119.022 21.2959 119.393 21.8536 119.518 22.4868L119.988 24.8737C120.154 25.7178 120.321 26.5619 121.331 27.2397C122.135 27.779 123.12 27.9769 124.07 27.7898C125.019 27.6028 125.856 27.0461 126.395 26.2423C127.442 24.6814 130.248 19.1811 130.623 18.4453C130.65 18.39 130.679 18.3368 130.708 18.2812C131.273 17.2178 131.424 15.9825 131.131 14.8144C130.838 13.6462 130.123 12.6281 129.123 11.9569Z" stroke="#2A2879" stroke-width="1.7" stroke-linecap="round" stroke-linejoin="round"/>
<path d="M13.854 23.7067L23.1292 37.9922M13.854 23.7067C13.1512 22.6242 12.0471 21.8652 10.7847 21.5968C9.52223 21.3283 8.20486 21.5724 7.12236 22.2752L2.02039 25.5878C1.74977 25.7635 1.56003 26.0395 1.49291 26.3551C1.4258 26.6707 1.4868 27 1.66251 27.2707L10.2752 40.5358C10.4509 40.8064 10.7269 40.9962 11.0425 41.0633C11.3581 41.1304 11.6875 41.0694 11.9581 40.8937L18.0805 36.9186C18.8923 36.3915 19.8804 36.2084 20.8272 36.4098C21.774 36.6111 22.6021 37.1804 23.1292 37.9922M13.854 23.7067C13.1512 22.6242 12.9071 21.3068 13.1756 20.0444C13.444 18.782 14.203 17.6779 15.2855 16.9751L20.3875 13.6625C20.6581 13.4868 20.9874 13.4258 21.3031 13.4929C21.6187 13.56 21.8947 13.7498 22.0704 14.0204L30.6831 27.2855C30.8588 27.5561 30.9198 27.8855 30.8527 28.2011C30.7856 28.5167 30.5958 28.7927 30.3252 28.9684L24.2028 32.9435C23.3909 33.4706 22.8217 34.2987 22.6204 35.2455C22.419 36.1923 22.6021 37.1804 23.1292 37.9922M21.2481 26.1586L23.2889 24.8336M18.5981 22.0771L20.6389 20.752M11.0442 32.7838L13.085 31.4587M8.39414 28.7022L10.4349 27.3772" stroke="#2A2879" stroke-width="1.7" stroke-linecap="round" stroke-linejoin="round"/>
</svg>
